
<svg width="560px" height="441px" viewBox="88 289 560 441" version="1.1" xmlns="http://www.w3.org/2000/svg" xmlns:xlink="http://www.w3.org/1999/xlink">
    <!-- Generator: Sketch 39.1 (31720) - http://www.bohemiancoding.com/sketch -->
    <desc>Created with Sketch.</desc>
    <defs>
        <filter x="-50%" y="-50%" width="200%" height="200%" filterUnits="objectBoundingBox" id="filter-1">
            <feOffset dx="0" dy="2" in="SourceAlpha" result="shadowOffsetOuter1"></feOffset>
            <feGaussianBlur stdDeviation="2" in="shadowOffsetOuter1" result="shadowBlurOuter1"></feGaussianBlur>
            <feColorMatrix values="0 0 0 0 0   0 0 0 0 0   0 0 0 0 0  0 0 0 0.5 0" type="matrix" in="shadowBlurOuter1" result="shadowMatrixOuter1"></feColorMatrix>
            <feMerge>
                <feMergeNode in="shadowMatrixOuter1"></feMergeNode>
                <feMergeNode in="SourceGraphic"></feMergeNode>
            </feMerge>
        </filter>
        <filter x="-50%" y="-50%" width="200%" height="200%" filterUnits="objectBoundingBox" id="filter-2">
            <feOffset dx="0" dy="2" in="SourceAlpha" result="shadowOffsetOuter1"></feOffset>
            <feGaussianBlur stdDeviation="2" in="shadowOffsetOuter1" result="shadowBlurOuter1"></feGaussianBlur>
            <feColorMatrix values="0 0 0 0 0   0 0 0 0 0   0 0 0 0 0  0 0 0 0.5 0" type="matrix" in="shadowBlurOuter1" result="shadowMatrixOuter1"></feColorMatrix>
            <feMerge>
                <feMergeNode in="shadowMatrixOuter1"></feMergeNode>
                <feMergeNode in="SourceGraphic"></feMergeNode>
            </feMerge>
        </filter>
        <path d="M6.43097481,220.242483 L6.43097481,196.230765 L15.0794123,196.230765 C16.1809803,196.230765 17.2005014,196.345021 18.1380061,196.573538 C19.0755108,196.802055 19.9514786,197.162403 20.7659358,197.654593 C21.5803929,198.146783 22.2219881,198.849901 22.6907404,199.763968 C23.1594928,200.678035 23.3938654,201.756149 23.3938654,202.998343 C23.3938654,205.107728 22.4446562,206.654588 20.5462092,207.638968 C23.3352856,208.646785 24.7298029,210.498329 24.7298029,213.193655 C24.7298029,213.83819 24.6741394,214.441699 24.5628108,215.004202 C24.4514821,215.566705 24.2053908,216.184863 23.8245295,216.858694 C23.4436682,217.532526 22.9456263,218.103809 22.3303889,218.572562 C21.7151514,219.041314 20.8626209,219.436818 19.7727717,219.759085 C18.6829225,220.081352 17.4055915,220.242483 15.9407404,220.242483 L6.43097481,220.242483 Z M10.7551936,216.463187 L15.7298029,216.463187 C18.847006,216.463187 20.4055842,215.297183 20.4055842,212.96514 C20.4055842,210.879192 18.7942722,209.836233 15.5715998,209.836233 L10.7551936,209.836233 L10.7551936,216.463187 Z M10.7551936,206.02178 L15.3255061,206.02178 C17.8216123,206.02178 19.0696467,205.060852 19.0696467,203.138968 C19.0696467,201.029582 17.7161446,199.974905 15.0090998,199.974905 L10.7551936,199.974905 L10.7551936,206.02178 Z M28.3508967,208.254202 C28.3508967,206.285442 28.57941,204.556944 29.0364436,203.068655 C29.4934771,201.580367 30.0823384,200.393855 30.8030451,199.509085 C31.5237519,198.624315 32.3938603,197.903619 33.4133967,197.346976 C34.432933,196.790332 35.4290168,196.418266 36.4016779,196.230765 C37.3743391,196.043264 38.4231567,195.949515 39.5481623,195.949515 C40.6731679,195.949515 41.7219856,196.043264 42.6946467,196.230765 C43.6673078,196.418266 44.6633916,196.790332 45.6829279,197.346976 C46.7024643,197.903619 47.5784321,198.624315 48.3108576,199.509085 C49.0432832,200.393855 49.6380038,201.580367 50.0950373,203.068655 C50.5520708,204.556944 50.7805842,206.285442 50.7805842,208.254202 C50.7805842,210.199524 50.5520708,211.922163 50.0950373,213.422171 C49.6380038,214.922178 49.0432832,216.10869 48.3108576,216.981741 C47.5784321,217.854792 46.7024643,218.569629 45.6829279,219.126272 C44.6633916,219.682916 43.6673078,220.054982 42.6946467,220.242483 C41.7219856,220.429984 40.6731679,220.523733 39.5481623,220.523733 C38.4231567,220.523733 37.3743391,220.429984 36.4016779,220.242483 C35.4290168,220.054982 34.432933,219.682916 33.4133967,219.126272 C32.3938603,218.569629 31.5237519,217.854792 30.8030451,216.981741 C30.0823384,216.10869 29.4934771,214.922178 29.0364436,213.422171 C28.57941,211.922163 28.3508967,210.199524 28.3508967,208.254202 L28.3508967,208.254202 Z M32.6751154,208.219046 C32.6751154,210.023742 32.8538246,211.517868 33.2112483,212.701468 C33.5686719,213.885067 34.0960104,214.755176 34.7932795,215.311819 C35.4905486,215.868463 36.2053852,216.246389 36.9378108,216.445608 C37.6702363,216.644828 38.5403448,216.744437 39.5481623,216.744437 C40.3684789,216.744437 41.0774562,216.691703 41.6751154,216.586233 C42.2727747,216.480764 42.8880029,216.25518 43.5208186,215.909476 C44.1536342,215.563771 44.6692541,215.083307 45.0676936,214.468069 C45.4661331,213.852832 45.7971844,213.017879 46.0608576,211.963187 C46.3245308,210.908494 46.4563654,209.660459 46.4563654,208.219046 C46.4563654,206.437787 46.2776563,204.95538 45.9202326,203.77178 C45.562809,202.588181 45.0296112,201.718072 44.3206233,201.161429 C43.6116353,200.604785 42.8967987,200.232719 42.176092,200.045218 C41.4553853,199.857717 40.5794175,199.763968 39.5481623,199.763968 C38.7512833,199.763968 38.0540247,199.816702 37.4563654,199.922171 C36.8587062,200.02764 36.2405483,200.256154 35.6018733,200.607718 C34.9631982,200.959282 34.4475783,201.433887 34.0549983,202.031546 C33.6624182,202.629205 33.3342964,203.449509 33.0706233,204.492483 C32.8069501,205.535457 32.6751154,206.777632 32.6751154,208.219046 L32.6751154,208.219046 Z M54.8411311,208.254202 C54.8411311,206.285442 55.0696444,204.556944 55.5266779,203.068655 C55.9837115,201.580367 56.5725728,200.393855 57.2932795,199.509085 C58.0139862,198.624315 58.8840947,197.903619 59.9036311,197.346976 C60.9231674,196.790332 61.9192512,196.418266 62.8919123,196.230765 C63.8645734,196.043264 64.9133911,195.949515 66.0383967,195.949515 C67.1634023,195.949515 68.2122199,196.043264 69.1848811,196.230765 C70.1575422,196.418266 71.153626,196.790332 72.1731623,197.346976 C73.1926987,197.903619 74.0686665,198.624315 74.801092,199.509085 C75.5335175,200.393855 76.1282382,201.580367 76.5852717,203.068655 C77.0423052,204.556944 77.2708186,206.285442 77.2708186,208.254202 C77.2708186,210.199524 77.0423052,211.922163 76.5852717,213.422171 C76.1282382,214.922178 75.5335175,216.10869 74.801092,216.981741 C74.0686665,217.854792 73.1926987,218.569629 72.1731623,219.126272 C71.153626,219.682916 70.1575422,220.054982 69.1848811,220.242483 C68.2122199,220.429984 67.1634023,220.523733 66.0383967,220.523733 C64.9133911,220.523733 63.8645734,220.429984 62.8919123,220.242483 C61.9192512,220.054982 60.9231674,219.682916 59.9036311,219.126272 C58.8840947,218.569629 58.0139862,217.854792 57.2932795,216.981741 C56.5725728,216.10869 55.9837115,214.922178 55.5266779,213.422171 C55.0696444,211.922163 54.8411311,210.199524 54.8411311,208.254202 L54.8411311,208.254202 Z M59.1653498,208.219046 C59.1653498,210.023742 59.344059,211.517868 59.7014826,212.701468 C60.0589063,213.885067 60.5862448,214.755176 61.2835139,215.311819 C61.980783,215.868463 62.6956196,216.246389 63.4280451,216.445608 C64.1604707,216.644828 65.0305791,216.744437 66.0383967,216.744437 C66.8587133,216.744437 67.5676906,216.691703 68.1653498,216.586233 C68.7630091,216.480764 69.3782373,216.25518 70.0110529,215.909476 C70.6438686,215.563771 71.1594884,215.083307 71.5579279,214.468069 C71.9563674,213.852832 72.2874188,213.017879 72.551092,211.963187 C72.8147652,210.908494 72.9465998,209.660459 72.9465998,208.219046 C72.9465998,206.437787 72.7678907,204.95538 72.410467,203.77178 C72.0530433,202.588181 71.5198455,201.718072 70.8108576,201.161429 C70.1018697,200.604785 69.3870331,200.232719 68.6663264,200.045218 C67.9456196,199.857717 67.0696518,199.763968 66.0383967,199.763968 C65.2415177,199.763968 64.5442591,199.816702 63.9465998,199.922171 C63.3489406,200.02764 62.7307827,200.256154 62.0921076,200.607718 C61.4534326,200.959282 60.9378127,201.433887 60.5452326,202.031546 C60.1526525,202.629205 59.8245308,203.449509 59.5608576,204.492483 C59.2971844,205.535457 59.1653498,206.777632 59.1653498,208.219046 L59.1653498,208.219046 Z M81.6301936,202.92803 C81.6301936,200.619425 82.4446385,198.879208 84.0735529,197.707327 C85.7024673,196.535446 87.7415094,195.949515 90.1907404,195.949515 C92.3470012,195.949515 94.4973703,196.50029 96.6419123,197.601858 L96.6419123,201.80303 C94.7903406,200.584274 92.8098916,199.974905 90.7005061,199.974905 C89.3762807,199.974905 88.2542216,200.203419 87.3342951,200.660452 C86.4143687,201.117486 85.9544123,201.838182 85.9544123,202.822562 C85.9544123,203.619441 86.3733534,204.243458 87.2112483,204.694632 C88.0491431,205.145806 89.0628048,205.526662 90.2522639,205.83721 C91.4417229,206.147758 92.6370235,206.537403 93.8382014,207.006155 C95.0393793,207.474908 96.0589003,208.286423 96.8967951,209.440726 C97.7346899,210.595028 98.1536311,212.086224 98.1536311,213.914358 C98.1536311,215.859681 97.3509047,217.447555 95.7454279,218.67803 C94.1399512,219.908505 92.1829395,220.523733 89.8743342,220.523733 C86.827444,220.523733 84.1848923,219.844053 81.9465998,218.484671 L81.9465998,214.09014 C84.0091101,215.625304 86.3176808,216.392874 88.8723811,216.392874 C92.1770851,216.392874 93.8294123,215.472961 93.8294123,213.633108 C93.8294123,212.801073 93.5305872,212.109674 92.9329279,211.55889 C92.3352687,211.008106 91.5794169,210.600883 90.6653498,210.33721 C89.7512827,210.073537 88.7727769,209.762993 87.7298029,209.405569 C86.686829,209.048146 85.7083231,208.658501 84.7942561,208.236624 C83.880189,207.814747 83.1243372,207.155574 82.5266779,206.259085 C81.9290187,205.362596 81.6301936,204.252256 81.6301936,202.92803 L81.6301936,202.92803 Z M100.561834,200.554983 L100.561834,196.230765 L120.249334,196.230765 L120.249334,200.554983 L112.550115,200.554983 L112.550115,220.242483 L108.225897,220.242483 L108.225897,200.554983 L100.561834,200.554983 Z M124.116522,220.242483 L124.116522,196.230765 L140.095037,196.230765 L140.095037,200.11553 L128.44074,200.11553 L128.44074,206.197562 L138.548162,206.197562 L138.548162,210.275687 L128.44074,210.275687 L128.44074,216.357718 L140.095037,216.357718 L140.095037,220.242483 L124.116522,220.242483 Z M145.069647,220.242483 L145.069647,196.230765 L154.280584,196.230765 C157.093098,196.230765 159.278623,196.895797 160.837225,198.225882 C162.395826,199.555967 163.175115,201.457315 163.175115,203.929983 C163.175115,207.609689 161.42318,209.988572 157.919256,211.066702 L164.229803,220.242483 L159.0091,220.242483 L153.278631,211.787405 L149.393865,211.787405 L149.393865,220.242483 L145.069647,220.242483 Z M149.393865,207.814749 L154.175115,207.814749 C155.639967,207.814749 156.788393,207.55108 157.620428,207.023733 C158.452463,206.496387 158.868475,205.500303 158.868475,204.035452 C158.868475,202.547163 158.452463,201.54522 157.620428,201.029593 C156.788393,200.513965 155.639967,200.256155 154.175115,200.256155 L149.393865,200.256155 L149.393865,207.814749 Z" id="path-3"></path>
        <filter x="-50%" y="-50%" width="200%" height="200%" filterUnits="objectBoundingBox" id="filter-4">
            <feOffset dx="0" dy="1" in="SourceAlpha" result="shadowOffsetOuter1"></feOffset>
            <feGaussianBlur stdDeviation="0.5" in="shadowOffsetOuter1" result="shadowBlurOuter1"></feGaussianBlur>
            <feColorMatrix values="0 0 0 0 0   0 0 0 0 0   0 0 0 0 0  0 0 0 0.5 0" type="matrix" in="shadowBlurOuter1"></feColorMatrix>
        </filter>
        <text id="text-5" font-family="MavenProBold, Maven Pro" font-size="48" font-weight="bold" fill="#FDDC53">
            <tspan x="154.463736" y="197.923858">+</tspan>
        </text>
        <filter x="-50%" y="-50%" width="200%" height="200%" filterUnits="objectBoundingBox" id="filter-6">
            <feOffset dx="0" dy="1" in="SourceAlpha" result="shadowOffsetOuter1"></feOffset>
            <feGaussianBlur stdDeviation="0.5" in="shadowOffsetOuter1" result="shadowBlurOuter1"></feGaussianBlur>
            <feColorMatrix values="0 0 0 0 0   0 0 0 0 0   0 0 0 0 0  0 0 0 0.5 0" type="matrix" in="shadowBlurOuter1"></feColorMatrix>
        </filter>
        <filter x="-50%" y="-50%" width="200%" height="200%" filterUnits="objectBoundingBox" id="filter-7">
            <feOffset dx="0" dy="2" in="SourceAlpha" result="shadowOffsetOuter1"></feOffset>
            <feGaussianBlur stdDeviation="2" in="shadowOffsetOuter1" result="shadowBlurOuter1"></feGaussianBlur>
            <feColorMatrix values="0 0 0 0 0   0 0 0 0 0   0 0 0 0 0  0 0 0 0.5 0" type="matrix" in="shadowBlurOuter1" result="shadowMatrixOuter1"></feColorMatrix>
            <feMerge>
                <feMergeNode in="shadowMatrixOuter1"></feMergeNode>
                <feMergeNode in="SourceGraphic"></feMergeNode>
            </feMerge>
        </filter>
        <polygon id="path-8" points="19.3262724 0.0391632956 0.319758951 0.0391632956 0.319758951 54.8452582 19.3262724 54.8452582 19.3262724 0.0391632956"></polygon>
        <polygon id="path-10" points="0.0620891167 0.53262082 0.0620891167 16.8784013 89.1146349 16.8784013 89.1146349 0.53262082 0.0620891167 0.53262082"></polygon>
        <filter x="-50%" y="-50%" width="200%" height="200%" filterUnits="objectBoundingBox" id="filter-12">
            <feOffset dx="0" dy="2" in="SourceAlpha" result="shadowOffsetOuter1"></feOffset>
            <feGaussianBlur stdDeviation="2" in="shadowOffsetOuter1" result="shadowBlurOuter1"></feGaussianBlur>
            <feColorMatrix values="0 0 0 0 0   0 0 0 0 0   0 0 0 0 0  0 0 0 0.5 0" type="matrix" in="shadowBlurOuter1" result="shadowMatrixOuter1"></feColorMatrix>
            <feMerge>
                <feMergeNode in="shadowMatrixOuter1"></feMergeNode>
                <feMergeNode in="SourceGraphic"></feMergeNode>
            </feMerge>
        </filter>
        <polygon id="path-13" points="12.6364089 0.0258625537 0.20907316 0.0258625537 0.20907316 36.2185668 12.6364089 36.2185668 12.6364089 0.0258625537"></polygon>
        <polygon id="path-15" points="0.0405967301 0.35173073 0.0405967301 11.1461141 58.2672613 11.1461141 58.2672613 0.35173073 0.0405967301 0.35173073"></polygon>
        <filter x="-50%" y="-50%" width="200%" height="200%" filterUnits="objectBoundingBox" id="filter-17">
            <feOffset dx="0" dy="2" in="SourceAlpha" result="shadowOffsetOuter1"></feOffset>
            <feGaussianBlur stdDeviation="2" in="shadowOffsetOuter1" result="shadowBlurOuter1"></feGaussianBlur>
            <feColorMatrix values="0 0 0 0 0   0 0 0 0 0   0 0 0 0 0  0 0 0 0.5 0" type="matrix" in="shadowBlurOuter1" result="shadowMatrixOuter1"></feColorMatrix>
            <feMerge>
                <feMergeNode in="shadowMatrixOuter1"></feMergeNode>
                <feMergeNode in="SourceGraphic"></feMergeNode>
            </feMerge>
        </filter>
        <polygon id="path-18" points="12.6364089 0.0258625537 0.20907316 0.0258625537 0.20907316 36.2185668 12.6364089 36.2185668 12.6364089 0.0258625537"></polygon>
        <polygon id="path-20" points="0.0405967301 0.35173073 0.0405967301 11.1461141 58.2672613 11.1461141 58.2672613 0.35173073 0.0405967301 0.35173073"></polygon>
        <filter x="-50%" y="-50%" width="200%" height="200%" filterUnits="objectBoundingBox" id="filter-22">
            <feOffset dx="0" dy="2" in="SourceAlpha" result="shadowOffsetOuter1"></feOffset>
            <feGaussianBlur stdDeviation="2" in="shadowOffsetOuter1" result="shadowBlurOuter1"></feGaussianBlur>
            <feColorMatrix values="0 0 0 0 0   0 0 0 0 0   0 0 0 0 0  0 0 0 0.5 0" type="matrix" in="shadowBlurOuter1" result="shadowMatrixOuter1"></feColorMatrix>
            <feMerge>
                <feMergeNode in="shadowMatrixOuter1"></feMergeNode>
                <feMergeNode in="SourceGraphic"></feMergeNode>
            </feMerge>
        </filter>
        <polygon id="path-23" points="9.66313619 0.0199511128 0.159879475 0.0199511128 0.159879475 27.9400372 9.66313619 27.9400372 9.66313619 0.0199511128"></polygon>
        <polygon id="path-25" points="0.0310445583 0.271335135 0.0310445583 8.59843086 44.5573174 8.59843086 44.5573174 0.271335135 0.0310445583 0.271335135"></polygon>
        <filter x="-50%" y="-50%" width="200%" height="200%" filterUnits="objectBoundingBox" id="filter-27">
            <feOffset dx="0" dy="2" in="SourceAlpha" result="shadowOffsetOuter1"></feOffset>
            <feGaussianBlur stdDeviation="2" in="shadowOffsetOuter1" result="shadowBlurOuter1"></feGaussianBlur>
            <feColorMatrix values="0 0 0 0 0   0 0 0 0 0   0 0 0 0 0  0 0 0 0.5 0" type="matrix" in="shadowBlurOuter1" result="shadowMatrixOuter1"></feColorMatrix>
            <feMerge>
                <feMergeNode in="shadowMatrixOuter1"></feMergeNode>
                <feMergeNode in="SourceGraphic"></feMergeNode>
            </feMerge>
        </filter>
        <polygon id="path-28" points="9.66313619 0.0199511128 0.159879475 0.0199511128 0.159879475 27.9400372 9.66313619 27.9400372 9.66313619 0.0199511128"></polygon>
        <polygon id="path-30" points="0.0310445583 0.271335135 0.0310445583 8.59843086 44.5573174 8.59843086 44.5573174 0.271335135 0.0310445583 0.271335135"></polygon>
    </defs>
    <g id="Group-4" stroke="none" stroke-width="1" fill="none" fill-rule="evenodd" transform="translate(92.000000, 293.000000)">
        <g id="Group-2" filter="url(#filter-1)" transform="translate(98.000000, 0.000000)">
            <g id="podium" filter="url(#filter-2)" transform="translate(73.989235, 118.052714)">
                <g id="Group" transform="translate(0.875912, 40.817259)">
                    <path d="M120.905709,78.8467841 C126.881921,70.4143338 130.855381,61.1116545 133.298739,51.4919151 C136.206735,39.8956093 140.524668,20.7910497 141.085439,6.5098517 C141.245659,2.92774678 137.736837,0 133.482992,0 L33.2492556,0 C28.9954102,0 25.4945996,2.92774678 25.6147647,6.5098517 C26.1835463,20.7910497 30.5014798,39.8956093 33.4094758,51.4919151 C35.8528333,61.1116545 39.8262935,70.4143338 45.8025057,78.8467841 C57.2822806,95.023597 69.4590133,100.164019 76.7810749,101.796541 L75.6274897,103.746124 C66.5510173,119.322546 59.5093409,129.515692 45.0174269,129.515692 C41.4845722,129.515692 38.6006092,131.944238 38.6006092,134.919206 C38.6006092,137.894175 41.4845722,140.32272 45.0174269,140.32272 L121.939129,140.32272 C125.471984,140.32272 128.355947,137.894175 128.355947,134.919206 C128.355947,131.944238 125.471984,129.515692 121.939129,129.515692 C107.447215,129.515692 100.405538,119.322546 91.329066,103.746124 L90.1754808,101.796541 C97.4334544,100.137035 109.449967,94.9426455 120.905709,78.8467841 L120.905709,78.8467841 Z" id="Fill-7" fill="#FDDC53"></path>
                    <path d="M138.310059,25.8625537 C136.715868,34.7402375 134.713116,43.4155424 133.118925,49.7904749 C130.675568,59.4102143 126.702108,68.7128936 120.725896,77.145344 C119.476178,78.9060396 118.21845,80.5183242 116.936689,82.0429112 C121.350754,83.7024174 126.229458,84.6535978 131.364515,84.6535978 C150.831265,84.6535978 166.596929,71.370802 166.596929,54.9511346 C166.596929,40.5687472 154.460252,28.6014136 138.310059,25.8625537 L138.310059,25.8625537 Z M45.6226925,77.145344 C39.6464802,68.7128936 35.6409761,59.4102143 33.2296626,49.7904749 C31.6034279,43.4155424 29.6006758,34.7672213 28.0385292,25.9165214 C12.0165125,28.7093489 0,40.6429527 0,54.9511346 C0,71.370802 15.7656644,84.6535978 35.2324146,84.6535978 C40.3033829,84.6535978 45.1179989,83.7294013 49.4679765,82.0968789 C48.1862151,80.5655459 46.9044538,78.9330235 45.6226925,77.145344 L45.6226925,77.145344 Z" id="Stroke-8" stroke="#FFB729" stroke-width="1.6" stroke-linecap="round" stroke-linejoin="round"></path>
                </g>
                <g id="BOOSTER">
                    <use fill="black" fill-opacity="1" filter="url(#filter-4)" xlink:href="#path-3"></use>
                    <use fill="#FFFFFF" fill-rule="evenodd" xlink:href="#path-3"></use>
                </g>
                <path d="M38.7763717,23.5801384 L38.7763717,19.308654 C40.2412228,20.5039725 41.8876907,21.1016227 43.7158248,21.1016227 C45.0634878,21.1016227 46.0537123,20.8203756 46.686528,20.2578727 C47.3193436,19.6953699 47.6357467,18.5938185 47.6357467,16.9531852 L47.6357467,0.834044624 L51.9599655,0.834044624 L51.9599655,16.8125602 C51.9599655,18.5117875 51.7021555,19.9502497 51.186528,21.1279899 C50.6709004,22.3057302 49.9853604,23.1670497 49.1298873,23.7119743 C48.2744143,24.2568989 47.4570397,24.6289655 46.6777389,24.8281852 C45.8984381,25.027405 45.0810635,25.1270134 44.2255905,25.1270134 C42.2568306,25.1270134 40.4404425,24.6113935 38.7763717,23.5801384 L38.7763717,23.5801384 Z M57.6376998,24.8457634 L57.6376998,0.834044624 L61.9619186,0.834044624 L61.9619186,10.9942009 L71.0322311,0.834044624 L76.8330123,0.834044624 L67.1474655,11.3809196 L77.8349655,24.8457634 L72.4384811,24.8457634 L64.3701217,14.4395134 L61.9619186,17.0762321 L61.9619186,24.8457634 L57.6376998,24.8457634 Z M79.7158248,12.8574821 C79.7158248,10.8887223 79.9443382,9.16022394 80.4013717,7.67193525 C80.8584052,6.18364656 81.4472665,4.99713499 82.1679733,4.11236494 C82.88868,3.22759489 83.7587885,2.50689897 84.7783248,1.95025556 C85.7978612,1.39361215 86.793945,1.02154556 87.7666061,0.834044624 C88.7392672,0.646543686 89.7880848,0.552794624 90.9130905,0.552794624 C92.0380961,0.552794624 93.0869137,0.646543686 94.0595748,0.834044624 C95.0322359,1.02154556 96.0283197,1.39361215 97.0478561,1.95025556 C98.0673924,2.50689897 98.9433602,3.22759489 99.6757858,4.11236494 C100.408211,4.99713499 101.002932,6.18364656 101.459965,7.67193525 C101.916999,9.16022394 102.145512,10.8887223 102.145512,12.8574821 C102.145512,14.8028044 101.916999,16.5254434 101.459965,18.0254509 C101.002932,19.5254584 100.408211,20.7119699 99.6757858,21.5850212 C98.9433602,22.4580724 98.0673924,23.172909 97.0478561,23.7295524 C96.0283197,24.2861958 95.0322359,24.6582624 94.0595748,24.8457634 C93.0869137,25.0332643 92.0380961,25.1270134 90.9130905,25.1270134 C89.7880848,25.1270134 88.7392672,25.0332643 87.7666061,24.8457634 C86.793945,24.6582624 85.7978612,24.2861958 84.7783248,23.7295524 C83.7587885,23.172909 82.88868,22.4580724 82.1679733,21.5850212 C81.4472665,20.7119699 80.8584052,19.5254584 80.4013717,18.0254509 C79.9443382,16.5254434 79.7158248,14.8028044 79.7158248,12.8574821 L79.7158248,12.8574821 Z M84.0400436,12.8223259 C84.0400436,14.6270224 84.2187527,16.1211481 84.5761764,17.3047477 C84.9336001,18.4883474 85.4609385,19.3584559 86.1582076,19.9150993 C86.8554768,20.4717427 87.5703134,20.8496686 88.3027389,21.0488884 C89.0351644,21.2481081 89.9052729,21.3477165 90.9130905,21.3477165 C91.7334071,21.3477165 92.4423843,21.2949827 93.0400436,21.1895134 C93.6377028,21.0840441 94.252931,20.8584604 94.8857467,20.5127556 C95.5185624,20.1670507 96.0341822,19.6865868 96.4326217,19.0713493 C96.8310612,18.4561119 97.1621126,17.6211593 97.4257858,16.5664665 C97.689459,15.5117737 97.8212936,14.2637393 97.8212936,12.8223259 C97.8212936,11.041067 97.6425844,9.55865992 97.2851608,8.37506025 C96.9277371,7.19146058 96.3945393,6.32135209 95.6855514,5.76470869 C94.9765635,5.20806528 94.2617269,4.83599869 93.5410201,4.64849775 C92.8203134,4.46099681 91.9443456,4.36724775 90.9130905,4.36724775 C90.1162115,4.36724775 89.4189528,4.4199816 88.8212936,4.52545087 C88.2236343,4.63092015 87.6054765,4.85943349 86.9668014,5.21099775 C86.3281263,5.56256201 85.8125065,6.03716664 85.4199264,6.63482587 C85.0273463,7.23248511 84.6992246,8.05278941 84.4355514,9.09576337 C84.1718782,10.1387373 84.0400436,11.3809124 84.0400436,12.8223259 L84.0400436,12.8223259 Z M104.764653,24.8457634 L114.309575,0.834044624 L119.055669,0.834044624 L128.60059,24.8457634 L123.959965,24.8457634 L121.7627,19.0801384 L111.602544,19.0801384 L109.405278,24.8457634 L104.764653,24.8457634 Z M113.079106,15.1602165 L120.250981,15.1602165 L116.682622,5.7383415 L113.079106,15.1602165 Z" id="JKOA" fill="#FFFFFF"></path>
                <g id="+" fill-opacity="1" fill="#FDDC53">
                    <use filter="url(#filter-6)" xlink:href="#text-5"></use>
                    <use xlink:href="#text-5"></use>
                </g>
            </g>
            <g id="star" filter="url(#filter-7)" transform="translate(106.387313, 0.000000)">
                <path d="M71.5887515,53.6860247 C71.5887515,53.380551 71.4024842,53.1161987 71.135501,52.9859808 L61.9639036,46.7482469 L60.5493066,47.712643 L68.1728153,52.9017797 L59.4130757,52.9017797 L59.9553207,54.4663533 L70.7598618,54.4663533 C71.2162168,54.4663533 71.5887515,54.1187791 71.5887515,53.6860247 L71.5887515,53.6860247 Z" id="Fill-1" fill="#FFFFFF"></path>
                <path d="M61.705199,34.2267622 L59.1222917,41.6736628 L60.8638914,41.6736628 L64.0697595,32.4330832 C64.1825547,32.1119442 64.0614809,31.7604536 63.7748362,31.5577836 C63.4840521,31.3551135 63.0918559,31.3551135 62.8010719,31.5538673 L54.0651331,37.4968974 L54.6073781,39.0575547 L61.705199,34.2267622 Z" id="Fill-2" fill="#FFFFFF"></path>
                <path d="M40.7252864,34.2267622 L47.8241421,39.0575547 L48.3653522,37.4968974 L39.6304483,31.5538673 C39.3396643,31.3551135 38.9474681,31.3551135 38.6597885,31.5577836 C38.3690045,31.7604536 38.2479307,32.1119442 38.3607259,32.4330832 L41.566594,41.6736628 L43.3092285,41.6736628 L40.7252864,34.2267622 Z" id="Fill-3" fill="#FFFFFF"></path>
                <path d="M51.2152427,64.455931 L48.2970542,56.0456132 L46.8865964,57.0060931 L50.4308502,67.2140061 C50.540541,67.5351451 50.8592651,67.7525014 51.2152427,67.7525014 C51.5753596,67.7525014 51.8909792,67.5351451 52.0037745,67.2140061 L55.5449238,57.0060931 L54.1334312,56.0456132 L51.2152427,64.455931 Z" id="Fill-4" fill="#FFFFFF"></path>
                <path d="M34.2576701,52.9017797 L41.8863529,47.712643 L40.4665818,46.7482469 L31.20599,53.047663 C30.915206,53.2464167 30.7899929,53.6018236 30.8986489,53.9229626 C31.012479,54.248018 31.3270638,54.4663533 31.6871807,54.4663533 L42.4761995,54.4663533 L43.0215489,52.9017797 L34.2576701,52.9017797 Z" id="Fill-5" fill="#FFFFFF"></path>
                <path d="M58.1723282,49.3261708 L60.5493066,47.712643 L61.9680429,46.7482469 L69.4259806,41.6736628 L55.5159488,41.6736628 L54.0651331,37.4968974 L51.219382,29.2853334 L47.8282814,39.0575547 L46.9186758,41.6736628 L33.0086441,41.6736628 L40.4707211,46.7482469 L41.8863529,47.712643 L44.2622964,49.3261708 L43.0215489,52.9017797 L42.4803388,54.4663533 L39.9657296,61.7135212 L46.8897009,57.0021767 L48.3011935,56.0456132 L51.219382,54.0570969 L54.1375704,56.0456132 L55.549063,57.0021767 L62.4730344,61.7135212 L59.9584251,54.4663533 L59.4130757,52.9017797 L58.1723282,49.3261708 Z M57.0888731,54.8452582 L51.2152427,50.8525602 L45.3416123,54.8452582 L47.585099,48.3813563 L41.7125034,44.384742 L48.9717559,44.384742 L51.2152427,37.9218191 L53.4587294,44.384742 L60.7190168,44.384742 L54.8453864,48.3813563 L57.0888731,54.8452582 Z" id="Fill-6" fill="#FFFFFF"></path>
                <g id="Group-10" transform="translate(41.392744, 0.000000)">
                    <mask id="mask-9" fill="white">
                        <use xlink:href="#path-8"></use>
                    </mask>
                    <g id="Clip-8"></g>
                    <polygon id="Fill-7" fill="#FFFFFF" mask="url(#mask-9)" points="13.4526419 48.3813563 19.3262724 44.3886583 12.065985 44.3886583 9.82249825 37.9218191 7.57901151 44.3886583 0.319758951 44.3886583 6.19235457 48.3813563 3.94886782 54.8452582 9.82249825 50.8525602 15.6961287 54.8452582"></polygon>
                    <path d="M9.82249825,7.35976232 C10.3719869,7.35976232 10.8169589,6.9387569 10.8169589,6.41886415 L10.8169589,0.953626248 C10.8169589,0.432754416 10.3719869,0.0127280711 9.82249825,0.0127280711 C9.27714885,0.0127280711 8.83217684,0.432754416 8.83217684,0.953626248 L8.83217684,6.41886415 C8.82803757,6.9387569 9.27714885,7.35976232 9.82249825,7.35976232 L9.82249825,7.35976232 Z" id="Fill-9" fill="#FFFFFF" mask="url(#mask-9)"></path>
                </g>
                <path d="M51.2152427,21.9001149 C51.7647314,21.9001149 52.2097034,21.4800885 52.2097034,20.9592167 L52.2097034,10.6788516 C52.2097034,10.1589589 51.7647314,9.73795345 51.2152427,9.73795345 C50.6698933,9.73795345 50.2249213,10.1589589 50.2249213,10.6788516 L50.2249213,20.9592167 C50.220782,21.4800885 50.6698933,21.9001149 51.2152427,21.9001149 L51.2152427,21.9001149 Z" id="Fill-11" fill="#FFFFFF"></path>
                <path d="M51.2152427,89.5831014 C50.6698933,89.5831014 50.2249213,90.0041068 50.2249213,90.5239996 L50.2249213,95.9892375 C50.2249213,96.5091302 50.6698933,96.9301357 51.2152427,96.9301357 C51.7647314,96.9301357 52.2097034,96.5091302 52.2097034,95.9892375 L52.2097034,90.5239996 C52.2097034,90.0041068 51.7647314,89.5831014 51.2152427,89.5831014 L51.2152427,89.5831014 Z" id="Fill-12" fill="#FFFFFF"></path>
                <path d="M51.2152427,75.0427488 C50.6698933,75.0427488 50.2249213,75.4627752 50.2249213,75.983647 L50.2249213,86.2640121 C50.2249213,86.7799885 50.6698933,87.200994 51.2152427,87.200994 C51.7647314,87.200994 52.2097034,86.7799885 52.2097034,86.2640121 L52.2097034,75.983647 C52.2097034,75.4627752 51.7647314,75.0427488 51.2152427,75.0427488 L51.2152427,75.0427488 Z" id="Fill-13" fill="#FFFFFF"></path>
                <path d="M39.1730585,23.410839 C39.3313858,23.7740786 39.6987464,23.992414 40.0909426,23.992414 C40.2161557,23.992414 40.345508,23.9698951 40.4707211,23.9199619 C40.9767474,23.7251245 41.2188949,23.1739011 41.0088267,22.6921925 L36.8488559,13.1960724 C36.6387877,12.7173012 36.0572197,12.4881959 35.5511934,12.6869496 C35.0420626,12.8857033 34.8040543,13.4369267 35.0141225,13.9147189 L39.1730585,23.410839 Z" id="Fill-14" fill="#FFFFFF"></path>
                <path d="M63.2615661,73.5281084 C63.051498,73.0493371 62.4688951,72.8202318 61.9639036,73.0189855 C61.4589121,73.2177393 61.2157297,73.7689627 61.4257979,74.2467549 L65.5857687,83.7467913 C65.7430612,84.1061145 66.1155959,84.3244499 66.5036528,84.3244499 C66.6288659,84.3244499 66.7582182,84.301931 66.8834313,84.2519978 C67.3884228,84.0571604 67.6305703,83.505937 67.4205021,83.0281448 L63.2615661,73.5281084 Z" id="Fill-15" fill="#FFFFFF"></path>
                <path d="M19.0872293,19.3995385 C19.2817752,19.5826269 19.5322013,19.6746606 19.7909059,19.6746606 C20.041332,19.6746606 20.2958974,19.5826269 20.4904433,19.3995385 C20.8785003,19.0323826 20.8785003,18.4351423 20.4904433,18.0679864 L16.4070491,14.2055064 C16.0189921,13.8383505 15.3887876,13.8383505 15.0007306,14.2055064 C14.6126736,14.5726623 14.6126736,15.1650071 15.0007306,15.5360794 L19.0872293,19.3995385 Z" id="Fill-16" fill="#FFFFFF"></path>
                <path d="M29.9528247,29.6828408 C30.1473706,29.8669083 30.401936,29.958942 30.6565013,29.958942 C30.9110667,29.958942 31.1656321,29.8669083 31.360178,29.6828408 C31.748235,29.3156849 31.748235,28.7194237 31.360178,28.3522678 L23.675615,21.081602 C23.287558,20.7144461 22.6573535,20.7144461 22.272401,21.081602 C21.8812395,21.4487579 21.8812395,22.0459982 22.272401,22.4131541 L29.9528247,29.6828408 Z" id="Fill-17" fill="#FFFFFF"></path>
                <path d="M83.3473954,77.5433253 C82.9593384,77.172253 82.3322383,77.172253 81.9452162,77.5433253 C81.5530199,77.9104812 81.5530199,78.5038051 81.9452162,78.870961 L86.0275756,82.7373573 C86.2210867,82.9204457 86.475652,83.0124795 86.7302174,83.0124795 C86.9858176,83.0124795 87.240383,82.9204457 87.4338941,82.7373573 C87.8219511,82.3702014 87.8219511,81.7739403 87.4338941,81.4067844 L83.3473954,77.5433253 Z" id="Fill-18" fill="#FFFFFF"></path>
                <path d="M72.4818,67.2590438 C72.093743,66.8918879 71.4635385,66.8918879 71.0754815,67.2590438 C70.6874245,67.6261997 70.6874245,68.22344 71.0754815,68.5905959 L78.7590097,75.8573454 C78.9535556,76.0404338 79.2081209,76.1324675 79.4626863,76.1324675 C79.7172517,76.1324675 79.9676778,76.0404338 80.166363,75.8573454 C80.5544199,75.4901895 80.5502807,74.8929492 80.166363,74.5297097 L72.4818,67.2590438 Z" id="Fill-19" fill="#FFFFFF"></path>
                <path d="M13.9338326,34.8768729 L23.9746776,38.8088678 C24.0957514,38.858801 24.2251037,38.8813199 24.3503167,38.8813199 C24.742513,38.8813199 25.1109084,38.6629845 25.2723401,38.2997449 C25.478269,37.8219527 25.2402607,37.2707293 24.7300952,37.0758919 L14.6933895,33.1409598 C14.1842587,32.9422061 13.6057951,33.1713114 13.3957269,33.6491036 C13.1856587,34.1278749 13.4288411,34.6781192 13.9338326,34.8768729 L13.9338326,34.8768729 Z" id="Fill-20" fill="#FFFFFF"></path>
                <g id="Group-24" transform="translate(0.000000, 46.995955)">
                    <mask id="mask-11" fill="white">
                        <use xlink:href="#path-10"></use>
                    </mask>
                    <g id="Clip-22"></g>
                    <path d="M88.5007921,15.0700361 L78.4599471,11.1341249 C77.9508163,10.9353712 77.3733875,11.1644765 77.1622845,11.6432478 C76.9522164,12.12104 77.1953987,12.6712843 77.7003902,12.8710171 L87.7412352,16.8059492 C87.862309,16.8558824 87.9916613,16.8784013 88.1210136,16.8784013 C88.5090706,16.8784013 88.8816053,16.6571287 89.0388977,16.2978055 C89.2489659,15.8151178 89.0068184,15.2687899 88.5007921,15.0700361 L88.5007921,15.0700361 Z" id="Fill-21" fill="#FFFFFF" mask="url(#mask-11)"></path>
                    <path d="M6.77081817,0.53262082 L0.994460685,0.53262082 C0.444972003,0.53262082 0,0.953626248 0,1.473519 C0,1.99341175 0.444972003,2.41441717 0.994460685,2.41441717 L6.77081817,2.41441717 C7.32030685,2.41441717 7.76527886,1.99341175 7.76527886,1.473519 C7.76527886,0.953626248 7.32030685,0.53262082 6.77081817,0.53262082 L6.77081817,0.53262082 Z" id="Fill-23" fill="#FFFFFF" mask="url(#mask-11)"></path>
                </g>
                <path d="M23.13337,48.4694737 C23.13337,47.949581 22.6894329,47.5285755 22.1399442,47.5285755 L11.2743488,47.5285755 C10.7238253,47.5285755 10.2798881,47.949581 10.2798881,48.4694737 C10.2798881,48.9893665 10.7238253,49.4103719 11.2743488,49.4103719 L22.1399442,49.4103719 C22.6894329,49.4103719 23.13337,48.9893665 23.13337,48.4694737 L23.13337,48.4694737 Z" id="Fill-25" fill="#FFFFFF"></path>
                <path d="M101.440164,47.5285755 L95.6638065,47.5285755 C95.1143178,47.5285755 94.6693458,47.949581 94.6693458,48.4694737 C94.6693458,48.9893665 95.1143178,49.4103719 95.6638065,49.4103719 L101.440164,49.4103719 C101.990687,49.4103719 102.434625,48.9893665 102.434625,48.4694737 C102.434625,47.949581 101.990687,47.5285755 101.440164,47.5285755 L101.440164,47.5285755 Z" id="Fill-26" fill="#FFFFFF"></path>
                <path d="M91.1613107,47.5285755 L80.2957153,47.5285755 C79.7451918,47.5285755 79.3012546,47.949581 79.3012546,48.4694737 C79.3012546,48.9893665 79.7451918,49.4103719 80.2957153,49.4103719 L91.1613107,49.4103719 C91.7107994,49.4103719 92.1557714,48.9893665 92.1557714,48.4694737 C92.1557714,47.949581 91.7107994,47.5285755 91.1613107,47.5285755 L91.1613107,47.5285755 Z" id="Fill-27" fill="#FFFFFF"></path>
                <path d="M25.2723401,58.6392025 C25.0622719,58.1604312 24.4796691,57.9313259 23.9705383,58.1300796 L13.9338326,62.0659908 C13.4288411,62.2647446 13.1856587,62.8110725 13.3957269,63.2937602 C13.5540542,63.6530834 13.925554,63.874356 14.313611,63.874356 C14.4429634,63.874356 14.5681764,63.8518371 14.6933895,63.8019039 L24.7342344,59.8669718 C25.2402607,59.667239 25.4824083,59.1169947 25.2723401,58.6392025 L25.2723401,58.6392025 Z" id="Fill-28" fill="#FFFFFF"></path>
                <path d="M77.1622845,38.2997449 C77.3206118,38.6629845 77.6921117,38.8813199 78.0801687,38.8813199 C78.2053817,38.8813199 78.334734,38.858801 78.4599471,38.8088678 L88.5007921,34.8768729 C89.0068184,34.6781192 89.2448266,34.1278749 89.0388977,33.6491036 C88.8288296,33.1713114 88.2462267,32.9422061 87.7412352,33.1409598 L77.7003902,37.0758919 C77.1953987,37.2707293 76.9522164,37.8219527 77.1622845,38.2997449 L77.1622845,38.2997449 Z" id="Fill-29" fill="#FFFFFF"></path>
                <path d="M19.0872293,77.5433253 L15.0007306,81.4067844 C14.6126736,81.7739403 14.6126736,82.3702014 15.0007306,82.7373573 C15.1952765,82.9204457 15.4498419,83.0124795 15.7044072,83.0124795 C15.9589726,83.0124795 16.213538,82.9204457 16.4070491,82.7373573 L20.4904433,78.870961 C20.8785003,78.5038051 20.8785003,77.9065648 20.4904433,77.5433253 C20.1023863,77.172253 19.4752863,77.172253 19.0872293,77.5433253 L19.0872293,77.5433253 Z" id="Fill-30" fill="#FFFFFF"></path>
                <path d="M29.9528247,67.2590438 L22.2692965,74.5297097 C21.8812395,74.8968656 21.8812395,75.4901895 22.2692965,75.8573454 C22.4628076,76.0404338 22.717373,76.1324675 22.9719383,76.1324675 C23.2265037,76.1324675 23.4810691,76.0404338 23.675615,75.8573454 L31.360178,68.5905959 C31.748235,68.22344 31.748235,67.6261997 31.360178,67.2590438 C30.972121,66.8918879 30.3408817,66.8918879 29.9528247,67.2590438 L29.9528247,67.2590438 Z" id="Fill-31" fill="#FFFFFF"></path>
                <path d="M82.6437187,19.6746606 C82.8982841,19.6746606 83.1528495,19.5826269 83.3473954,19.3995385 L87.4338941,15.5360794 C87.8219511,15.1689235 87.8219511,14.5726623 87.4338941,14.2055064 C87.0458371,13.8383505 86.4156326,13.8383505 86.0275756,14.2055064 L81.9452162,18.0719027 C81.5561244,18.4390586 81.5561244,19.0323826 81.9452162,19.3995385 C82.134588,19.5826269 82.3891533,19.6746606 82.6437187,19.6746606 L82.6437187,19.6746606 Z" id="Fill-32" fill="#FFFFFF"></path>
                <path d="M71.7781233,29.958942 C72.0326887,29.958942 72.2872541,29.8669083 72.4818,29.6828408 L80.1622237,22.4131541 C80.5502807,22.0459982 80.5502807,21.4487579 80.1622237,21.081602 C79.7741667,20.7144461 79.1470666,20.7144461 78.7590097,21.081602 L71.0754815,28.3522678 C70.6874245,28.7194237 70.6874245,29.3156849 71.0754815,29.6828408 C71.2689926,29.8669083 71.5235579,29.958942 71.7781233,29.958942 L71.7781233,29.958942 Z" id="Fill-33" fill="#FFFFFF"></path>
                <path d="M40.4707211,73.0189855 C39.9615903,72.8163155 39.3841615,73.0493371 39.1730585,73.5281084 L35.0141225,83.0242285 C34.8040543,83.505937 35.0462019,84.0532441 35.5511934,84.2519978 C35.673302,84.301931 35.8026543,84.3244499 35.9320066,84.3244499 C36.3200636,84.3244499 36.6915635,84.1061145 36.8488559,83.742875 L41.0088267,74.2467549 C41.2188949,73.7689627 40.9767474,73.2177393 40.4707211,73.0189855 L40.4707211,73.0189855 Z" id="Fill-34" fill="#FFFFFF"></path>
                <path d="M61.9639036,23.9238782 C62.0891167,23.9698951 62.218469,23.992414 62.343682,23.992414 C62.7358783,23.992414 63.1032389,23.7740786 63.2615661,23.4147553 L67.4205021,13.9147189 C67.6305703,13.4369267 67.3884228,12.8857033 66.8834313,12.6869496 C66.3743005,12.4881959 65.7958369,12.7173012 65.5857687,13.1960724 L61.4257979,22.6961089 C61.2157297,23.1739011 61.4589121,23.7251245 61.9639036,23.9238782 L61.9639036,23.9238782 Z" id="Fill-35" fill="#FFFFFF"></path>
            </g>
            <g id="star" filter="url(#filter-12)" transform="translate(25.611761, 64.656384)">
                <path d="M46.8080298,35.4530352 C46.8080298,35.2513072 46.6862396,35.076735 46.5116737,34.990742 L40.51486,30.8714838 L39.5899312,31.5083492 L44.5745331,34.9351375 L38.8470111,34.9351375 L39.2015558,35.9683465 L46.2660635,35.9683465 C46.5644494,35.9683465 46.8080298,35.7388164 46.8080298,35.4530352 L46.8080298,35.4530352 Z" id="Fill-1" fill="#FFFFFF"></path>
                <path d="M40.345707,22.6025788 L38.656883,27.5203434 L39.7956213,27.5203434 L41.8917658,21.4180738 C41.9655165,21.2060009 41.8863529,20.9738845 41.6989313,20.8400458 C41.5088033,20.706207 41.2523673,20.706207 41.0622393,20.8374595 L35.3502794,24.762102 L35.7048241,25.7927248 L40.345707,22.6025788 Z" id="Fill-2" fill="#FFFFFF"></path>
                <path d="M26.6280719,22.6025788 L31.2696314,25.7927248 L31.6234995,24.762102 L25.9122162,20.8374595 C25.7220882,20.706207 25.4656522,20.706207 25.277554,20.8400458 C25.087426,20.9738845 25.0082624,21.2060009 25.0820131,21.4180738 L27.1781576,27.5203434 L28.3175725,27.5203434 L26.6280719,22.6025788 Z" id="Fill-3" fill="#FFFFFF"></path>
                <path d="M33.4868895,42.5652374 L31.5788431,37.011254 L30.6566208,37.6455332 L32.9740174,44.3866078 C33.0457383,44.5986807 33.2541349,44.7422179 33.4868895,44.7422179 C33.7223505,44.7422179 33.9287172,44.5986807 34.0024679,44.3866078 L36.3178348,37.6455332 L35.3949358,37.011254 L33.4868895,42.5652374 Z" id="Fill-4" fill="#FFFFFF"></path>
                <path d="M22.3992458,34.9351375 L27.3872308,31.5083492 L26.4589189,30.8714838 L20.4039166,35.0314755 C20.2137885,35.162728 20.1319185,35.3974307 20.2029627,35.6095036 C20.2773901,35.8241628 20.4830802,35.9683465 20.7185412,35.9683465 L27.7728997,35.9683465 L28.1294743,34.9351375 L22.3992458,34.9351375 Z" id="Fill-5" fill="#FFFFFF"></path>
                <path d="M38.0357531,32.5738864 L39.5899312,31.5083492 L40.5175665,30.8714838 L45.3939104,27.5203434 L36.2988896,27.5203434 L35.3502794,24.762102 L33.4895959,19.3393711 L31.2723378,25.7927248 L30.6775957,27.5203434 L21.582575,27.5203434 L26.4616253,30.8714838 L27.3872308,31.5083492 L28.9407323,32.5738864 L28.1294743,34.9351375 L27.7756061,35.9683465 L26.1314386,40.7542121 L30.6586506,37.6429469 L31.5815496,37.011254 L33.4895959,35.6980829 L35.3976422,37.011254 L36.3205412,37.6429469 L40.8477532,40.7542121 L39.2035857,35.9683465 L38.8470111,34.9351375 L38.0357531,32.5738864 Z M37.3273401,36.2185668 L33.4868895,33.5818794 L29.6464388,36.2185668 L31.113334,31.9499523 L27.2735599,29.3106787 L32.0199943,29.3106787 L33.4868895,25.0427107 L34.9537846,29.3106787 L39.7008956,29.3106787 L35.8604449,31.9499523 L37.3273401,36.2185668 Z" id="Fill-6" fill="#FFFFFF"></path>
                <g id="Group-10" transform="translate(27.064487, 0.000000)">
                    <mask id="mask-14" fill="white">
                        <use xlink:href="#path-13"></use>
                    </mask>
                    <g id="Clip-8"></g>
                    <polygon id="Fill-7" fill="#FFFFFF" mask="url(#mask-14)" points="8.79595819 31.9499523 12.6364089 29.3132649 7.88929789 29.3132649 6.42240271 25.0427107 4.95550752 29.3132649 0.20907316 29.3132649 4.04884722 31.9499523 2.58195204 36.2185668 6.42240271 33.5818794 10.2628534 36.2185668"></polygon>
                    <path d="M6.42240271,4.8602204 C6.78168377,4.8602204 7.072627,4.58219795 7.072627,4.23887255 L7.072627,0.629753182 C7.072627,0.285781218 6.78168377,0.00840532995 6.42240271,0.00840532995 C6.06582809,0.00840532995 5.77488486,0.285781218 5.77488486,0.629753182 L5.77488486,4.23887255 C5.77217841,4.58219795 6.06582809,4.8602204 6.42240271,4.8602204 L6.42240271,4.8602204 Z" id="Fill-9" fill="#FFFFFF" mask="url(#mask-14)"></path>
                </g>
                <path d="M33.4868895,14.46234 C33.8461705,14.46234 34.1371137,14.1849641 34.1371137,13.8409922 L34.1371137,7.05207183 C34.1371137,6.70874643 33.8461705,6.43072398 33.4868895,6.43072398 C33.1303148,6.43072398 32.8393716,6.70874643 32.8393716,7.05207183 L32.8393716,13.8409922 C32.8366652,14.1849641 33.1303148,14.46234 33.4868895,14.46234 L33.4868895,14.46234 Z" id="Fill-11" fill="#FFFFFF"></path>
                <path d="M33.4868895,59.1586519 C33.1303148,59.1586519 32.8393716,59.4366743 32.8393716,59.7799997 L32.8393716,63.3891191 C32.8393716,63.7324445 33.1303148,64.0104669 33.4868895,64.0104669 C33.8461705,64.0104669 34.1371137,63.7324445 34.1371137,63.3891191 L34.1371137,59.7799997 C34.1371137,59.4366743 33.8461705,59.1586519 33.4868895,59.1586519 L33.4868895,59.1586519 Z" id="Fill-12" fill="#FFFFFF"></path>
                <path d="M33.4868895,49.5565323 C33.1303148,49.5565323 32.8393716,49.8339081 32.8393716,50.1778801 L32.8393716,56.9668004 C32.8393716,57.3075396 33.1303148,57.585562 33.4868895,57.585562 C33.8461705,57.585562 34.1371137,57.3075396 34.1371137,56.9668004 L34.1371137,50.1778801 C34.1371137,49.8339081 33.8461705,49.5565323 33.4868895,49.5565323 L33.4868895,49.5565323 Z" id="Fill-13" fill="#FFFFFF"></path>
                <path d="M25.6131536,15.459988 C25.7166753,15.6998632 25.9568726,15.844047 26.2133086,15.844047 C26.2951787,15.844047 26.3797552,15.829176 26.4616253,15.7962012 C26.7924887,15.667535 26.9508159,15.3035196 26.8134636,14.9854102 L24.0934827,8.71438747 C23.9561304,8.39821775 23.5758744,8.24692181 23.2450111,8.37817427 C22.9121179,8.50942673 22.7564971,8.87344217 22.8938493,9.18896533 L25.6131536,15.459988 Z" id="Fill-14" fill="#FFFFFF"></path>
                <path d="M41.3633317,48.556298 C41.2259794,48.2401283 40.8450468,48.0888323 40.51486,48.2200848 C40.1846733,48.3513373 40.0256695,48.7153527 40.1630217,49.0308758 L42.8830026,55.3044848 C42.9858477,55.5417737 43.2294281,55.6859575 43.4831576,55.6859575 C43.5650277,55.6859575 43.6496042,55.6710865 43.7314743,55.6381118 C44.061661,55.5094455 44.2199883,55.1454301 44.082636,54.829907 L41.3633317,48.556298 Z" id="Fill-15" fill="#FFFFFF"></path>
                <path d="M12.4801115,12.811016 C12.6073145,12.9319234 12.7710547,12.9927004 12.9402077,12.9927004 C13.1039479,12.9927004 13.2703945,12.9319234 13.3975976,12.811016 C13.6513271,12.5685545 13.6513271,12.1741506 13.3975976,11.9316891 L10.7276859,9.38099479 C10.4739564,9.13853335 10.0618996,9.13853335 9.80817,9.38099479 C9.55444043,9.62345623 9.55444043,10.0146274 9.80817,10.259675 L12.4801115,12.811016 Z" id="Fill-16" fill="#FFFFFF"></path>
                <path d="M19.5845392,19.601876 C19.7117423,19.72343 19.8781889,19.784207 20.0446355,19.784207 C20.2110821,19.784207 20.3775287,19.72343 20.5047318,19.601876 C20.7584613,19.3594146 20.7584613,18.9656572 20.5047318,18.7231957 L15.4802098,13.9218127 C15.2264802,13.6793512 14.8144234,13.6793512 14.5627237,13.9218127 C14.3069643,14.1642741 14.3069643,14.558678 14.5627237,14.8011395 L19.5845392,19.601876 Z" id="Fill-17" fill="#FFFFFF"></path>
                <path d="M54.4963739,51.2078563 C54.2426443,50.9628086 53.8326174,50.9628086 53.5795644,51.2078563 C53.3231284,51.4503177 53.3231284,51.8421354 53.5795644,52.0845969 L56.2487994,54.6378775 C56.3753259,54.7587849 56.5417725,54.8195619 56.7082191,54.8195619 C56.8753423,54.8195619 57.0417889,54.7587849 57.1683154,54.6378775 C57.4220449,54.395416 57.4220449,54.0016587 57.1683154,53.7591972 L54.4963739,51.2078563 Z" id="Fill-18" fill="#FFFFFF"></path>
                <path d="M47.3919461,44.4163497 C47.1382166,44.1738883 46.7261598,44.1738883 46.4724302,44.4163497 C46.2187006,44.6588111 46.2187006,45.0532151 46.4724302,45.2956765 L51.4962755,50.0944734 C51.6234786,50.2153808 51.7899252,50.2761578 51.9563718,50.2761578 C52.1228184,50.2761578 52.2865586,50.2153808 52.4164681,50.0944734 C52.6701977,49.8520119 52.6674912,49.457608 52.4164681,49.2177328 L47.3919461,44.4163497 Z" id="Fill-19" fill="#FFFFFF"></path>
                <path d="M9.11058285,23.0318972 L15.6757507,25.6284976 C15.7549143,25.6614723 15.8394909,25.6763433 15.9213609,25.6763433 C16.177797,25.6763433 16.4186709,25.5321596 16.5242224,25.2922844 C16.6588682,24.9767612 16.5032474,24.6127458 16.1696776,24.4840796 L9.60721618,21.8855395 C9.274323,21.754287 8.89609679,21.905583 8.75874452,22.2211061 C8.62139225,22.5372758 8.78039611,22.9006447 9.11058285,23.0318972 L9.11058285,23.0318972 Z" id="Fill-20" fill="#FFFFFF"></path>
                <g id="Group-24" transform="translate(0.000000, 31.035064)">
                    <mask id="mask-16" fill="white">
                        <use xlink:href="#path-15"></use>
                    </mask>
                    <g id="Clip-22"></g>
                    <path d="M57.8659025,9.95191066 L51.3007346,7.35272401 C50.9678414,7.22147155 50.5902919,7.37276749 50.452263,7.68893721 C50.3149107,8.00446037 50.4739146,8.36782925 50.8041013,8.49972827 L57.3692692,11.0982684 C57.4484328,11.1312431 57.5330093,11.1461141 57.6175858,11.1461141 C57.8713154,11.1461141 58.1148958,10.9999906 58.2177408,10.7627017 C58.3550931,10.4439457 58.1967659,10.0831631 57.8659025,9.95191066 L57.8659025,9.95191066 Z" id="Fill-21" fill="#FFFFFF" mask="url(#mask-16)"></path>
                    <path d="M4.42707342,0.35173073 L0.650224294,0.35173073 C0.290943233,0.35173073 0,0.629753182 0,0.973078583 C0,1.31640398 0.290943233,1.59442643 0.650224294,1.59442643 L4.42707342,1.59442643 C4.78635448,1.59442643 5.07729771,1.31640398 5.07729771,0.973078583 C5.07729771,0.629753182 4.78635448,0.35173073 4.42707342,0.35173073 L4.42707342,0.35173073 Z" id="Fill-23" fill="#FFFFFF" mask="url(#mask-16)"></path>
                </g>
                <path d="M15.125665,32.008143 C15.125665,31.6648176 14.8353984,31.3867952 14.4761173,31.3867952 L7.37168958,31.3867952 C7.0117319,31.3867952 6.72146528,31.6648176 6.72146528,32.008143 C6.72146528,32.3514684 7.0117319,32.6294909 7.37168958,32.6294909 L14.4761173,32.6294909 C14.8353984,32.6294909 15.125665,32.3514684 15.125665,32.008143 L15.125665,32.008143 Z" id="Fill-25" fill="#FFFFFF"></path>
                <path d="M66.3262611,31.3867952 L62.5494119,31.3867952 C62.1901309,31.3867952 61.8991876,31.6648176 61.8991876,32.008143 C61.8991876,32.3514684 62.1901309,32.6294909 62.5494119,32.6294909 L66.3262611,32.6294909 C66.6862187,32.6294909 66.9764854,32.3514684 66.9764854,32.008143 C66.9764854,31.6648176 66.6862187,31.3867952 66.3262611,31.3867952 L66.3262611,31.3867952 Z" id="Fill-26" fill="#FFFFFF"></path>
                <path d="M59.6054724,31.3867952 L52.5010446,31.3867952 C52.1410869,31.3867952 51.8508203,31.6648176 51.8508203,32.008143 C51.8508203,32.3514684 52.1410869,32.6294909 52.5010446,32.6294909 L59.6054724,32.6294909 C59.9647534,32.6294909 60.2556967,32.3514684 60.2556967,32.008143 C60.2556967,31.6648176 59.9647534,31.3867952 59.6054724,31.3867952 L59.6054724,31.3867952 Z" id="Fill-27" fill="#FFFFFF"></path>
                <path d="M16.5242224,38.7240016 C16.3868701,38.4078319 16.0059375,38.256536 15.6730443,38.3877884 L9.11058285,40.9869751 C8.78039611,41.1182275 8.62139225,41.4790102 8.75874452,41.7977661 C8.86226619,42.0350551 9.10516995,42.1811785 9.35889952,42.1811785 C9.44347604,42.1811785 9.52534611,42.1663075 9.60721618,42.1333328 L16.1723841,39.5347927 C16.5032474,39.4028937 16.6615747,39.0395248 16.5242224,38.7240016 L16.5242224,38.7240016 Z" id="Fill-28" fill="#FFFFFF"></path>
                <path d="M50.452263,25.2922844 C50.5557846,25.5321596 50.7986884,25.6763433 51.052418,25.6763433 C51.134288,25.6763433 51.2188646,25.6614723 51.3007346,25.6284976 L57.8659025,23.0318972 C58.1967659,22.9006447 58.3523867,22.5372758 58.2177408,22.2211061 C58.0803886,21.905583 57.6994559,21.754287 57.3692692,21.8855395 L50.8041013,24.4840796 C50.4739146,24.6127458 50.3149107,24.9767612 50.452263,25.2922844 L50.452263,25.2922844 Z" id="Fill-29" fill="#FFFFFF"></path>
                <path d="M12.4801115,51.2078563 L9.80817,53.7591972 C9.55444043,54.0016587 9.55444043,54.395416 9.80817,54.6378775 C9.93537308,54.7587849 10.1018197,54.8195619 10.2682663,54.8195619 C10.4347129,54.8195619 10.6011595,54.7587849 10.7276859,54.6378775 L13.3975976,52.0845969 C13.6513271,51.8421354 13.6513271,51.4477315 13.3975976,51.2078563 C13.143868,50.9628086 12.733841,50.9628086 12.4801115,51.2078563 L12.4801115,51.2078563 Z" id="Fill-30" fill="#FFFFFF"></path>
                <path d="M19.5845392,44.4163497 L14.5606939,49.2177328 C14.3069643,49.4601942 14.3069643,49.8520119 14.5606939,50.0944734 C14.6872203,50.2153808 14.8536669,50.2761578 15.0201135,50.2761578 C15.1865601,50.2761578 15.3530067,50.2153808 15.4802098,50.0944734 L20.5047318,45.2956765 C20.7584613,45.0532151 20.7584613,44.6588111 20.5047318,44.4163497 C20.2510022,44.1738883 19.8382688,44.1738883 19.5845392,44.4163497 L19.5845392,44.4163497 Z" id="Fill-31" fill="#FFFFFF"></path>
                <path d="M54.0362776,12.9927004 C54.2027242,12.9927004 54.3691708,12.9319234 54.4963739,12.811016 L57.1683154,10.259675 C57.4220449,10.0172136 57.4220449,9.62345623 57.1683154,9.38099479 C56.9145858,9.13853335 56.502529,9.13853335 56.2487994,9.38099479 L53.5795644,11.9342754 C53.3251582,12.1767368 53.3251582,12.5685545 53.5795644,12.811016 C53.7033844,12.9319234 53.869831,12.9927004 54.0362776,12.9927004 L54.0362776,12.9927004 Z" id="Fill-32" fill="#FFFFFF"></path>
                <path d="M46.9318499,19.784207 C47.0982964,19.784207 47.264743,19.72343 47.3919461,19.601876 L52.4137616,14.8011395 C52.6674912,14.558678 52.6674912,14.1642741 52.4137616,13.9218127 C52.1600321,13.6793512 51.7500051,13.6793512 51.4962755,13.9218127 L46.4724302,18.7231957 C46.2187006,18.9656572 46.2187006,19.3594146 46.4724302,19.601876 C46.5989567,19.72343 46.7654033,19.784207 46.9318499,19.784207 L46.9318499,19.784207 Z" id="Fill-33" fill="#FFFFFF"></path>
                <path d="M26.4616253,48.2200848 C26.1287321,48.0862461 25.7511825,48.2401283 25.6131536,48.556298 L22.8938493,54.8273207 C22.7564971,55.1454301 22.9148243,55.5068593 23.2450111,55.6381118 C23.3248513,55.6710865 23.4094278,55.6859575 23.4940043,55.6859575 C23.7477339,55.6859575 23.9906377,55.5417737 24.0934827,55.3018986 L26.8134636,49.0308758 C26.9508159,48.7153527 26.7924887,48.3513373 26.4616253,48.2200848 L26.4616253,48.2200848 Z" id="Fill-34" fill="#FFFFFF"></path>
                <path d="M40.51486,15.7987875 C40.5967301,15.829176 40.6813066,15.844047 40.7631767,15.844047 C41.0196127,15.844047 41.25981,15.6998632 41.3633317,15.4625743 L44.082636,9.18896533 C44.2199883,8.87344217 44.061661,8.50942673 43.7314743,8.37817427 C43.3985811,8.24692181 43.0203549,8.39821775 42.8830026,8.71438747 L40.1630217,14.9879964 C40.0256695,15.3035196 40.1846733,15.667535 40.51486,15.7987875 L40.51486,15.7987875 Z" id="Fill-35" fill="#FFFFFF"></path>
            </g>
            <g id="star" filter="url(#filter-17)" transform="translate(236.416252, 64.656384)">
                <path d="M46.8080298,35.4530352 C46.8080298,35.2513072 46.6862396,35.076735 46.5116737,34.990742 L40.51486,30.8714838 L39.5899312,31.5083492 L44.5745331,34.9351375 L38.8470111,34.9351375 L39.2015558,35.9683465 L46.2660635,35.9683465 C46.5644494,35.9683465 46.8080298,35.7388164 46.8080298,35.4530352 L46.8080298,35.4530352 Z" id="Fill-1" fill="#FFFFFF"></path>
                <path d="M40.345707,22.6025788 L38.656883,27.5203434 L39.7956213,27.5203434 L41.8917658,21.4180738 C41.9655165,21.2060009 41.8863529,20.9738845 41.6989313,20.8400458 C41.5088033,20.706207 41.2523673,20.706207 41.0622393,20.8374595 L35.3502794,24.762102 L35.7048241,25.7927248 L40.345707,22.6025788 Z" id="Fill-2" fill="#FFFFFF"></path>
                <path d="M26.6280719,22.6025788 L31.2696314,25.7927248 L31.6234995,24.762102 L25.9122162,20.8374595 C25.7220882,20.706207 25.4656522,20.706207 25.277554,20.8400458 C25.087426,20.9738845 25.0082624,21.2060009 25.0820131,21.4180738 L27.1781576,27.5203434 L28.3175725,27.5203434 L26.6280719,22.6025788 Z" id="Fill-3" fill="#FFFFFF"></path>
                <path d="M33.4868895,42.5652374 L31.5788431,37.011254 L30.6566208,37.6455332 L32.9740174,44.3866078 C33.0457383,44.5986807 33.2541349,44.7422179 33.4868895,44.7422179 C33.7223505,44.7422179 33.9287172,44.5986807 34.0024679,44.3866078 L36.3178348,37.6455332 L35.3949358,37.011254 L33.4868895,42.5652374 Z" id="Fill-4" fill="#FFFFFF"></path>
                <path d="M22.3992458,34.9351375 L27.3872308,31.5083492 L26.4589189,30.8714838 L20.4039166,35.0314755 C20.2137885,35.162728 20.1319185,35.3974307 20.2029627,35.6095036 C20.2773901,35.8241628 20.4830802,35.9683465 20.7185412,35.9683465 L27.7728997,35.9683465 L28.1294743,34.9351375 L22.3992458,34.9351375 Z" id="Fill-5" fill="#FFFFFF"></path>
                <path d="M38.0357531,32.5738864 L39.5899312,31.5083492 L40.5175665,30.8714838 L45.3939104,27.5203434 L36.2988896,27.5203434 L35.3502794,24.762102 L33.4895959,19.3393711 L31.2723378,25.7927248 L30.6775957,27.5203434 L21.582575,27.5203434 L26.4616253,30.8714838 L27.3872308,31.5083492 L28.9407323,32.5738864 L28.1294743,34.9351375 L27.7756061,35.9683465 L26.1314386,40.7542121 L30.6586506,37.6429469 L31.5815496,37.011254 L33.4895959,35.6980829 L35.3976422,37.011254 L36.3205412,37.6429469 L40.8477532,40.7542121 L39.2035857,35.9683465 L38.8470111,34.9351375 L38.0357531,32.5738864 Z M37.3273401,36.2185668 L33.4868895,33.5818794 L29.6464388,36.2185668 L31.113334,31.9499523 L27.2735599,29.3106787 L32.0199943,29.3106787 L33.4868895,25.0427107 L34.9537846,29.3106787 L39.7008956,29.3106787 L35.8604449,31.9499523 L37.3273401,36.2185668 Z" id="Fill-6" fill="#FFFFFF"></path>
                <g id="Group-10" transform="translate(27.064487, 0.000000)">
                    <mask id="mask-19" fill="white">
                        <use xlink:href="#path-18"></use>
                    </mask>
                    <g id="Clip-8"></g>
                    <polygon id="Fill-7" fill="#FFFFFF" mask="url(#mask-19)" points="8.79595819 31.9499523 12.6364089 29.3132649 7.88929789 29.3132649 6.42240271 25.0427107 4.95550752 29.3132649 0.20907316 29.3132649 4.04884722 31.9499523 2.58195204 36.2185668 6.42240271 33.5818794 10.2628534 36.2185668"></polygon>
                    <path d="M6.42240271,4.8602204 C6.78168377,4.8602204 7.072627,4.58219795 7.072627,4.23887255 L7.072627,0.629753182 C7.072627,0.285781218 6.78168377,0.00840532995 6.42240271,0.00840532995 C6.06582809,0.00840532995 5.77488486,0.285781218 5.77488486,0.629753182 L5.77488486,4.23887255 C5.77217841,4.58219795 6.06582809,4.8602204 6.42240271,4.8602204 L6.42240271,4.8602204 Z" id="Fill-9" fill="#FFFFFF" mask="url(#mask-19)"></path>
                </g>
                <path d="M33.4868895,14.46234 C33.8461705,14.46234 34.1371137,14.1849641 34.1371137,13.8409922 L34.1371137,7.05207183 C34.1371137,6.70874643 33.8461705,6.43072398 33.4868895,6.43072398 C33.1303148,6.43072398 32.8393716,6.70874643 32.8393716,7.05207183 L32.8393716,13.8409922 C32.8366652,14.1849641 33.1303148,14.46234 33.4868895,14.46234 L33.4868895,14.46234 Z" id="Fill-11" fill="#FFFFFF"></path>
                <path d="M33.4868895,59.1586519 C33.1303148,59.1586519 32.8393716,59.4366743 32.8393716,59.7799997 L32.8393716,63.3891191 C32.8393716,63.7324445 33.1303148,64.0104669 33.4868895,64.0104669 C33.8461705,64.0104669 34.1371137,63.7324445 34.1371137,63.3891191 L34.1371137,59.7799997 C34.1371137,59.4366743 33.8461705,59.1586519 33.4868895,59.1586519 L33.4868895,59.1586519 Z" id="Fill-12" fill="#FFFFFF"></path>
                <path d="M33.4868895,49.5565323 C33.1303148,49.5565323 32.8393716,49.8339081 32.8393716,50.1778801 L32.8393716,56.9668004 C32.8393716,57.3075396 33.1303148,57.585562 33.4868895,57.585562 C33.8461705,57.585562 34.1371137,57.3075396 34.1371137,56.9668004 L34.1371137,50.1778801 C34.1371137,49.8339081 33.8461705,49.5565323 33.4868895,49.5565323 L33.4868895,49.5565323 Z" id="Fill-13" fill="#FFFFFF"></path>
                <path d="M25.6131536,15.459988 C25.7166753,15.6998632 25.9568726,15.844047 26.2133086,15.844047 C26.2951787,15.844047 26.3797552,15.829176 26.4616253,15.7962012 C26.7924887,15.667535 26.9508159,15.3035196 26.8134636,14.9854102 L24.0934827,8.71438747 C23.9561304,8.39821775 23.5758744,8.24692181 23.2450111,8.37817427 C22.9121179,8.50942673 22.7564971,8.87344217 22.8938493,9.18896533 L25.6131536,15.459988 Z" id="Fill-14" fill="#FFFFFF"></path>
                <path d="M41.3633317,48.556298 C41.2259794,48.2401283 40.8450468,48.0888323 40.51486,48.2200848 C40.1846733,48.3513373 40.0256695,48.7153527 40.1630217,49.0308758 L42.8830026,55.3044848 C42.9858477,55.5417737 43.2294281,55.6859575 43.4831576,55.6859575 C43.5650277,55.6859575 43.6496042,55.6710865 43.7314743,55.6381118 C44.061661,55.5094455 44.2199883,55.1454301 44.082636,54.829907 L41.3633317,48.556298 Z" id="Fill-15" fill="#FFFFFF"></path>
                <path d="M12.4801115,12.811016 C12.6073145,12.9319234 12.7710547,12.9927004 12.9402077,12.9927004 C13.1039479,12.9927004 13.2703945,12.9319234 13.3975976,12.811016 C13.6513271,12.5685545 13.6513271,12.1741506 13.3975976,11.9316891 L10.7276859,9.38099479 C10.4739564,9.13853335 10.0618996,9.13853335 9.80817,9.38099479 C9.55444043,9.62345623 9.55444043,10.0146274 9.80817,10.259675 L12.4801115,12.811016 Z" id="Fill-16" fill="#FFFFFF"></path>
                <path d="M19.5845392,19.601876 C19.7117423,19.72343 19.8781889,19.784207 20.0446355,19.784207 C20.2110821,19.784207 20.3775287,19.72343 20.5047318,19.601876 C20.7584613,19.3594146 20.7584613,18.9656572 20.5047318,18.7231957 L15.4802098,13.9218127 C15.2264802,13.6793512 14.8144234,13.6793512 14.5627237,13.9218127 C14.3069643,14.1642741 14.3069643,14.558678 14.5627237,14.8011395 L19.5845392,19.601876 Z" id="Fill-17" fill="#FFFFFF"></path>
                <path d="M54.4963739,51.2078563 C54.2426443,50.9628086 53.8326174,50.9628086 53.5795644,51.2078563 C53.3231284,51.4503177 53.3231284,51.8421354 53.5795644,52.0845969 L56.2487994,54.6378775 C56.3753259,54.7587849 56.5417725,54.8195619 56.7082191,54.8195619 C56.8753423,54.8195619 57.0417889,54.7587849 57.1683154,54.6378775 C57.4220449,54.395416 57.4220449,54.0016587 57.1683154,53.7591972 L54.4963739,51.2078563 Z" id="Fill-18" fill="#FFFFFF"></path>
                <path d="M47.3919461,44.4163497 C47.1382166,44.1738883 46.7261598,44.1738883 46.4724302,44.4163497 C46.2187006,44.6588111 46.2187006,45.0532151 46.4724302,45.2956765 L51.4962755,50.0944734 C51.6234786,50.2153808 51.7899252,50.2761578 51.9563718,50.2761578 C52.1228184,50.2761578 52.2865586,50.2153808 52.4164681,50.0944734 C52.6701977,49.8520119 52.6674912,49.457608 52.4164681,49.2177328 L47.3919461,44.4163497 Z" id="Fill-19" fill="#FFFFFF"></path>
                <path d="M9.11058285,23.0318972 L15.6757507,25.6284976 C15.7549143,25.6614723 15.8394909,25.6763433 15.9213609,25.6763433 C16.177797,25.6763433 16.4186709,25.5321596 16.5242224,25.2922844 C16.6588682,24.9767612 16.5032474,24.6127458 16.1696776,24.4840796 L9.60721618,21.8855395 C9.274323,21.754287 8.89609679,21.905583 8.75874452,22.2211061 C8.62139225,22.5372758 8.78039611,22.9006447 9.11058285,23.0318972 L9.11058285,23.0318972 Z" id="Fill-20" fill="#FFFFFF"></path>
                <g id="Group-24" transform="translate(0.000000, 31.035064)">
                    <mask id="mask-21" fill="white">
                        <use xlink:href="#path-20"></use>
                    </mask>
                    <g id="Clip-22"></g>
                    <path d="M57.8659025,9.95191066 L51.3007346,7.35272401 C50.9678414,7.22147155 50.5902919,7.37276749 50.452263,7.68893721 C50.3149107,8.00446037 50.4739146,8.36782925 50.8041013,8.49972827 L57.3692692,11.0982684 C57.4484328,11.1312431 57.5330093,11.1461141 57.6175858,11.1461141 C57.8713154,11.1461141 58.1148958,10.9999906 58.2177408,10.7627017 C58.3550931,10.4439457 58.1967659,10.0831631 57.8659025,9.95191066 L57.8659025,9.95191066 Z" id="Fill-21" fill="#FFFFFF" mask="url(#mask-21)"></path>
                    <path d="M4.42707342,0.35173073 L0.650224294,0.35173073 C0.290943233,0.35173073 0,0.629753182 0,0.973078583 C0,1.31640398 0.290943233,1.59442643 0.650224294,1.59442643 L4.42707342,1.59442643 C4.78635448,1.59442643 5.07729771,1.31640398 5.07729771,0.973078583 C5.07729771,0.629753182 4.78635448,0.35173073 4.42707342,0.35173073 L4.42707342,0.35173073 Z" id="Fill-23" fill="#FFFFFF" mask="url(#mask-21)"></path>
                </g>
                <path d="M15.125665,32.008143 C15.125665,31.6648176 14.8353984,31.3867952 14.4761173,31.3867952 L7.37168958,31.3867952 C7.0117319,31.3867952 6.72146528,31.6648176 6.72146528,32.008143 C6.72146528,32.3514684 7.0117319,32.6294909 7.37168958,32.6294909 L14.4761173,32.6294909 C14.8353984,32.6294909 15.125665,32.3514684 15.125665,32.008143 L15.125665,32.008143 Z" id="Fill-25" fill="#FFFFFF"></path>
                <path d="M66.3262611,31.3867952 L62.5494119,31.3867952 C62.1901309,31.3867952 61.8991876,31.6648176 61.8991876,32.008143 C61.8991876,32.3514684 62.1901309,32.6294909 62.5494119,32.6294909 L66.3262611,32.6294909 C66.6862187,32.6294909 66.9764854,32.3514684 66.9764854,32.008143 C66.9764854,31.6648176 66.6862187,31.3867952 66.3262611,31.3867952 L66.3262611,31.3867952 Z" id="Fill-26" fill="#FFFFFF"></path>
                <path d="M59.6054724,31.3867952 L52.5010446,31.3867952 C52.1410869,31.3867952 51.8508203,31.6648176 51.8508203,32.008143 C51.8508203,32.3514684 52.1410869,32.6294909 52.5010446,32.6294909 L59.6054724,32.6294909 C59.9647534,32.6294909 60.2556967,32.3514684 60.2556967,32.008143 C60.2556967,31.6648176 59.9647534,31.3867952 59.6054724,31.3867952 L59.6054724,31.3867952 Z" id="Fill-27" fill="#FFFFFF"></path>
                <path d="M16.5242224,38.7240016 C16.3868701,38.4078319 16.0059375,38.256536 15.6730443,38.3877884 L9.11058285,40.9869751 C8.78039611,41.1182275 8.62139225,41.4790102 8.75874452,41.7977661 C8.86226619,42.0350551 9.10516995,42.1811785 9.35889952,42.1811785 C9.44347604,42.1811785 9.52534611,42.1663075 9.60721618,42.1333328 L16.1723841,39.5347927 C16.5032474,39.4028937 16.6615747,39.0395248 16.5242224,38.7240016 L16.5242224,38.7240016 Z" id="Fill-28" fill="#FFFFFF"></path>
                <path d="M50.452263,25.2922844 C50.5557846,25.5321596 50.7986884,25.6763433 51.052418,25.6763433 C51.134288,25.6763433 51.2188646,25.6614723 51.3007346,25.6284976 L57.8659025,23.0318972 C58.1967659,22.9006447 58.3523867,22.5372758 58.2177408,22.2211061 C58.0803886,21.905583 57.6994559,21.754287 57.3692692,21.8855395 L50.8041013,24.4840796 C50.4739146,24.6127458 50.3149107,24.9767612 50.452263,25.2922844 L50.452263,25.2922844 Z" id="Fill-29" fill="#FFFFFF"></path>
                <path d="M12.4801115,51.2078563 L9.80817,53.7591972 C9.55444043,54.0016587 9.55444043,54.395416 9.80817,54.6378775 C9.93537308,54.7587849 10.1018197,54.8195619 10.2682663,54.8195619 C10.4347129,54.8195619 10.6011595,54.7587849 10.7276859,54.6378775 L13.3975976,52.0845969 C13.6513271,51.8421354 13.6513271,51.4477315 13.3975976,51.2078563 C13.143868,50.9628086 12.733841,50.9628086 12.4801115,51.2078563 L12.4801115,51.2078563 Z" id="Fill-30" fill="#FFFFFF"></path>
                <path d="M19.5845392,44.4163497 L14.5606939,49.2177328 C14.3069643,49.4601942 14.3069643,49.8520119 14.5606939,50.0944734 C14.6872203,50.2153808 14.8536669,50.2761578 15.0201135,50.2761578 C15.1865601,50.2761578 15.3530067,50.2153808 15.4802098,50.0944734 L20.5047318,45.2956765 C20.7584613,45.0532151 20.7584613,44.6588111 20.5047318,44.4163497 C20.2510022,44.1738883 19.8382688,44.1738883 19.5845392,44.4163497 L19.5845392,44.4163497 Z" id="Fill-31" fill="#FFFFFF"></path>
                <path d="M54.0362776,12.9927004 C54.2027242,12.9927004 54.3691708,12.9319234 54.4963739,12.811016 L57.1683154,10.259675 C57.4220449,10.0172136 57.4220449,9.62345623 57.1683154,9.38099479 C56.9145858,9.13853335 56.502529,9.13853335 56.2487994,9.38099479 L53.5795644,11.9342754 C53.3251582,12.1767368 53.3251582,12.5685545 53.5795644,12.811016 C53.7033844,12.9319234 53.869831,12.9927004 54.0362776,12.9927004 L54.0362776,12.9927004 Z" id="Fill-32" fill="#FFFFFF"></path>
                <path d="M46.9318499,19.784207 C47.0982964,19.784207 47.264743,19.72343 47.3919461,19.601876 L52.4137616,14.8011395 C52.6674912,14.558678 52.6674912,14.1642741 52.4137616,13.9218127 C52.1600321,13.6793512 51.7500051,13.6793512 51.4962755,13.9218127 L46.4724302,18.7231957 C46.2187006,18.9656572 46.2187006,19.3594146 46.4724302,19.601876 C46.5989567,19.72343 46.7654033,19.784207 46.9318499,19.784207 L46.9318499,19.784207 Z" id="Fill-33" fill="#FFFFFF"></path>
                <path d="M26.4616253,48.2200848 C26.1287321,48.0862461 25.7511825,48.2401283 25.6131536,48.556298 L22.8938493,54.8273207 C22.7564971,55.1454301 22.9148243,55.5068593 23.2450111,55.6381118 C23.3248513,55.6710865 23.4094278,55.6859575 23.4940043,55.6859575 C23.7477339,55.6859575 23.9906377,55.5417737 24.0934827,55.3018986 L26.8134636,49.0308758 C26.9508159,48.7153527 26.7924887,48.3513373 26.4616253,48.2200848 L26.4616253,48.2200848 Z" id="Fill-34" fill="#FFFFFF"></path>
                <path d="M40.51486,15.7987875 C40.5967301,15.829176 40.6813066,15.844047 40.7631767,15.844047 C41.0196127,15.844047 41.25981,15.6998632 41.3633317,15.4625743 L44.082636,9.18896533 C44.2199883,8.87344217 44.061661,8.50942673 43.7314743,8.37817427 C43.3985811,8.24692181 43.0203549,8.39821775 42.8830026,8.71438747 L40.1630217,14.9879964 C40.0256695,15.3035196 40.1846733,15.667535 40.51486,15.7987875 L40.51486,15.7987875 Z" id="Fill-35" fill="#FFFFFF"></path>
            </g>
            <g id="star" filter="url(#filter-22)" transform="translate(269.908554, 151.480672)">
                <path d="M35.7943758,27.3494843 C35.7943758,27.1938656 35.7012421,27.0591956 35.5677505,26.9928581 L30.9819518,23.8151446 L30.2746533,24.3064408 L34.0864076,26.9499632 L29.7065379,26.9499632 L29.9776603,27.7470102 L35.3799309,27.7470102 C35.6081084,27.7470102 35.7943758,27.5699441 35.7943758,27.3494843 L35.7943758,27.3494843 Z" id="Fill-1" fill="#FFFFFF"></path>
                <path d="M30.8525995,17.4362751 L29.5611458,21.2299792 L30.4319457,21.2299792 L32.0348797,16.5225141 C32.0912774,16.358915 32.0307405,16.1798537 31.8874181,16.0766067 C31.7420261,15.9733597 31.5459279,15.9733597 31.4005359,16.0746116 L27.0325666,19.102193 L27.303689,19.8972448 L30.8525995,17.4362751 Z" id="Fill-2" fill="#FFFFFF"></path>
                <path d="M20.3626432,17.4362751 L23.9120711,19.8972448 L24.1826761,19.102193 L19.8152242,16.0746116 C19.6698322,15.9733597 19.473734,15.9733597 19.3298942,16.0766067 C19.1845022,16.1798537 19.1239653,16.358915 19.180363,16.5225141 L20.783297,21.2299792 L21.6546143,21.2299792 L20.3626432,17.4362751 Z" id="Fill-3" fill="#FFFFFF"></path>
                <path d="M25.6076213,32.8360403 L24.1485271,28.5515388 L23.4432982,29.0408399 L25.2154251,34.2410974 C25.2702705,34.4046965 25.4296325,34.5154252 25.6076213,34.5154252 C25.7876798,34.5154252 25.9454896,34.4046965 26.0018872,34.2410974 L27.7724619,29.0408399 L27.0667156,28.5515388 L25.6076213,32.8360403 Z" id="Fill-4" fill="#FFFFFF"></path>
                <path d="M17.1288351,26.9499632 L20.9431765,24.3064408 L20.2332909,23.8151446 L15.602995,27.0242811 C15.457603,27.125533 15.3949965,27.3065894 15.4493245,27.4701885 C15.5062395,27.6357827 15.6635319,27.7470102 15.8435903,27.7470102 L21.2380998,27.7470102 L21.5107745,26.9499632 L17.1288351,26.9499632 Z" id="Fill-5" fill="#FFFFFF"></path>
                <path d="M29.0861641,25.1284266 L30.2746533,24.3064408 L30.9840214,23.8151446 L34.7129903,21.2299792 L27.7579744,21.2299792 L27.0325666,19.102193 L25.609691,14.9189434 L23.9141407,19.8972448 L23.4593379,21.2299792 L16.504322,21.2299792 L20.2353605,23.8151446 L20.9431765,24.3064408 L22.1311482,25.1284266 L21.5107745,26.9499632 L21.2401694,27.7470102 L19.9828648,31.4389636 L23.4448504,29.0388447 L24.1505967,28.5515388 L25.609691,27.5385211 L27.0687852,28.5515388 L27.7745315,29.0388447 L31.2365172,31.4389636 L29.9792126,27.7470102 L29.7065379,26.9499632 L29.0861641,25.1284266 Z M28.5444366,27.9400372 L25.6076213,25.9060213 L22.6708061,27.9400372 L23.7925495,24.647106 L20.8562517,22.611095 L24.485878,22.611095 L25.6076213,19.3186626 L26.7293647,22.611095 L30.3595084,22.611095 L27.4226932,24.647106 L28.5444366,27.9400372 Z" id="Fill-6" fill="#FFFFFF"></path>
                <g id="Group-10" transform="translate(20.696372, 0.000000)">
                    <mask id="mask-24" fill="white">
                        <use xlink:href="#path-23"></use>
                    </mask>
                    <g id="Clip-8"></g>
                    <polygon id="Fill-7" fill="#FFFFFF" mask="url(#mask-24)" points="6.72632097 24.647106 9.66313619 22.6130901 6.0329925 22.6130901 4.91124913 19.3186626 3.78950575 22.6130901 0.159879475 22.6130901 3.09617728 24.647106 1.97443391 27.9400372 4.91124913 25.9060213 7.84806435 27.9400372"></polygon>
                    <path d="M4.91124913,3.74931288 C5.18599347,3.74931288 5.40847947,3.53483842 5.40847947,3.2699874 L5.40847947,0.485809598 C5.40847947,0.220459797 5.18599347,0.00648411168 4.91124913,0.00648411168 C4.63857442,0.00648411168 4.41608842,0.220459797 4.41608842,0.485809598 L4.41608842,3.2699874 C4.41401878,3.53483842 4.63857442,3.74931288 4.91124913,3.74931288 L4.91124913,3.74931288 Z" id="Fill-9" fill="#FFFFFF" mask="url(#mask-24)"></path>
                </g>
                <path d="M25.6076213,11.1566623 C25.8823657,11.1566623 26.1048517,10.9426866 26.1048517,10.6773368 L26.1048517,5.4401697 C26.1048517,5.17531867 25.8823657,4.96084421 25.6076213,4.96084421 C25.3349466,4.96084421 25.1124606,5.17531867 25.1124606,5.4401697 L25.1124606,10.6773368 C25.110391,10.9426866 25.3349466,11.1566623 25.6076213,11.1566623 L25.6076213,11.1566623 Z" id="Fill-11" fill="#FFFFFF"></path>
                <path d="M25.6076213,45.6366743 C25.3349466,45.6366743 25.1124606,45.8511488 25.1124606,46.1159998 L25.1124606,48.9001776 C25.1124606,49.1650286 25.3349466,49.3795031 25.6076213,49.3795031 C25.8823657,49.3795031 26.1048517,49.1650286 26.1048517,48.9001776 L26.1048517,46.1159998 C26.1048517,45.8511488 25.8823657,45.6366743 25.6076213,45.6366743 L25.6076213,45.6366743 Z" id="Fill-12" fill="#FFFFFF"></path>
                <path d="M25.6076213,38.2293249 C25.3349466,38.2293249 25.1124606,38.4433006 25.1124606,38.7086504 L25.1124606,43.9458175 C25.1124606,44.2086734 25.3349466,44.4231479 25.6076213,44.4231479 C25.8823657,44.4231479 26.1048517,44.2086734 26.1048517,43.9458175 L26.1048517,38.7086504 C26.1048517,38.4433006 25.8823657,38.2293249 25.6076213,38.2293249 L25.6076213,38.2293249 Z" id="Fill-13" fill="#FFFFFF"></path>
                <path d="M19.5865293,11.9262765 C19.6656929,12.1113231 19.8493732,12.2225505 20.0454713,12.2225505 C20.1080778,12.2225505 20.172754,12.2110786 20.2353605,12.1856409 C20.4883737,12.0863842 20.6094475,11.8055722 20.5044134,11.5601736 L18.424428,6.72252747 C18.3193939,6.47862512 18.0286098,6.36191111 17.7755967,6.46316301 C17.5210313,6.5644149 17.4020272,6.84522682 17.5070613,7.08863039 L19.5865293,11.9262765 Z" id="Fill-14" fill="#FFFFFF"></path>
                <path d="M31.6307831,37.4577156 C31.525749,37.2138132 31.2344475,37.0970992 30.9819518,37.1983511 C30.7294561,37.299603 30.6078649,37.5804149 30.712899,37.8238185 L32.7928844,42.6634597 C32.8715306,42.8465112 33.0577979,42.9577386 33.2518264,42.9577386 C33.314433,42.9577386 33.3791091,42.9462667 33.4417156,42.9208291 C33.6942114,42.8215723 33.8152852,42.5407604 33.7102511,42.2973568 L31.6307831,37.4577156 Z" id="Fill-15" fill="#FFFFFF"></path>
                <path d="M9.54361464,9.88278375 C9.64088759,9.9760552 9.76610064,10.0229403 9.89545297,10.0229403 C10.020666,10.0229403 10.1479487,9.9760552 10.2452217,9.88278375 C10.4392501,9.69574207 10.4392501,9.39148759 10.2452217,9.20444591 L8.20352454,7.23676741 C8.00949605,7.04972572 7.69439378,7.04972572 7.50036529,7.23676741 C7.3063368,7.42380909 7.3063368,7.72556967 7.50036529,7.91460647 L9.54361464,9.88278375 Z" id="Fill-16" fill="#FFFFFF"></path>
                <path d="M14.9764123,15.1214472 C15.0736853,15.2152174 15.200968,15.2621025 15.3282507,15.2621025 C15.4555334,15.2621025 15.5828161,15.2152174 15.680089,15.1214472 C15.8741175,14.9344055 15.8741175,14.6306498 15.680089,14.4436081 L11.8378075,10.739684 C11.643779,10.5526424 11.3286767,10.5526424 11.1362005,10.739684 C10.9406198,10.9267257 10.9406198,11.2309802 11.1362005,11.4180219 L14.9764123,15.1214472 Z" id="Fill-17" fill="#FFFFFF"></path>
                <path d="M41.6736977,39.5032034 C41.4796692,39.3141666 41.1661192,39.3141666 40.9726081,39.5032034 C40.77651,39.6902451 40.77651,39.9925045 40.9726081,40.1795462 L43.0137878,42.1492198 C43.1105433,42.2424912 43.237826,42.2893763 43.3651087,42.2893763 C43.4929088,42.2893763 43.6201915,42.2424912 43.716947,42.1492198 C43.9109755,41.9621781 43.9109755,41.6584224 43.716947,41.4713807 L41.6736977,39.5032034 Z" id="Fill-18" fill="#FFFFFF"></path>
                <path d="M36.2409,34.2640412 C36.0468715,34.0769995 35.7317692,34.0769995 35.5377407,34.2640412 C35.3437122,34.4510829 35.3437122,34.7553374 35.5377407,34.942379 L39.3795048,38.644308 C39.4767778,38.7375795 39.6040605,38.7844646 39.7313432,38.7844646 C39.8586258,38.7844646 39.9838389,38.7375795 40.0831815,38.644308 C40.27721,38.4572663 40.2751403,38.1530119 40.0831815,37.9679653 L36.2409,34.2640412 Z" id="Fill-19" fill="#FFFFFF"></path>
                <path d="M6.9669163,17.7674635 L11.9873388,19.7705553 C12.0478757,19.7959929 12.1125518,19.8074648 12.1751584,19.8074648 C12.3712565,19.8074648 12.5554542,19.6962374 12.6361701,19.5111908 C12.7391345,19.2677872 12.6201304,18.9869753 12.3650476,18.8877185 L7.34669473,16.8831305 C7.09212935,16.7818786 6.80289755,16.8985926 6.69786346,17.1419962 C6.59282937,17.3858985 6.71442056,17.6662116 6.9669163,17.7674635 L6.9669163,17.7674635 Z" id="Fill-20" fill="#FFFFFF"></path>
                <g id="Group-24" transform="translate(0.000000, 23.941335)">
                    <mask id="mask-26" fill="white">
                        <use xlink:href="#path-25"></use>
                    </mask>
                    <g id="Clip-22"></g>
                    <path d="M44.250396,7.67718822 L39.2299735,5.67210138 C38.9754082,5.57084948 38.6866938,5.68756349 38.5811423,5.93146585 C38.4761082,6.17486943 38.5976994,6.45518256 38.8501951,6.55693324 L43.8706176,8.5615213 C43.9311545,8.58695897 43.9958307,8.59843086 44.0605068,8.59843086 C44.2545353,8.59843086 44.4408027,8.48570707 44.5194489,8.30265561 C44.624483,8.05675815 44.5034092,7.77844012 44.250396,7.67718822 L44.250396,7.67718822 Z" id="Fill-21" fill="#FFFFFF" mask="url(#mask-26)"></path>
                    <path d="M3.38540909,0.271335135 L0.497230343,0.271335135 C0.222486001,0.271335135 0,0.485809598 0,0.750660621 C0,1.01551164 0.222486001,1.22998611 0.497230343,1.22998611 L3.38540909,1.22998611 C3.66015343,1.22998611 3.88263943,1.01551164 3.88263943,0.750660621 C3.88263943,0.485809598 3.66015343,0.271335135 3.38540909,0.271335135 L3.38540909,0.271335135 Z" id="Fill-23" fill="#FFFFFF" mask="url(#mask-26)"></path>
                </g>
                <path d="M11.566685,24.691996 C11.566685,24.427145 11.3447164,24.2126706 11.0699721,24.2126706 L5.63717438,24.2126706 C5.36191263,24.2126706 5.13994404,24.427145 5.13994404,24.691996 C5.13994404,24.9568471 5.36191263,25.1713215 5.63717438,25.1713215 L11.0699721,25.1713215 C11.3447164,25.1713215 11.566685,24.9568471 11.566685,24.691996 L11.566685,24.691996 Z" id="Fill-25" fill="#FFFFFF"></path>
                <path d="M50.720082,24.2126706 L47.8319032,24.2126706 C47.5571589,24.2126706 47.3346729,24.427145 47.3346729,24.691996 C47.3346729,24.9568471 47.5571589,25.1713215 47.8319032,25.1713215 L50.720082,25.1713215 C50.9953437,25.1713215 51.2173123,24.9568471 51.2173123,24.691996 C51.2173123,24.427145 50.9953437,24.2126706 50.720082,24.2126706 L50.720082,24.2126706 Z" id="Fill-26" fill="#FFFFFF"></path>
                <path d="M45.5806554,24.2126706 L40.1478576,24.2126706 C39.8725959,24.2126706 39.6506273,24.427145 39.6506273,24.691996 C39.6506273,24.9568471 39.8725959,25.1713215 40.1478576,25.1713215 L45.5806554,25.1713215 C45.8553997,25.1713215 46.0778857,24.9568471 46.0778857,24.691996 C46.0778857,24.427145 45.8553997,24.2126706 45.5806554,24.2126706 L45.5806554,24.2126706 Z" id="Fill-27" fill="#FFFFFF"></path>
                <path d="M12.6361701,29.8728013 C12.531136,29.6288989 12.2398345,29.5121849 11.9852692,29.6134368 L6.9669163,31.6185236 C6.71442056,31.7197755 6.59282937,31.9980936 6.69786346,32.243991 C6.77702708,32.4270425 6.96277702,32.5397663 7.15680551,32.5397663 C7.22148168,32.5397663 7.2840882,32.5282944 7.34669473,32.5028567 L12.3671172,30.4982687 C12.6201304,30.396518 12.7412041,30.1162048 12.6361701,29.8728013 L12.6361701,29.8728013 Z" id="Fill-28" fill="#FFFFFF"></path>
                <path d="M38.5811423,19.5111908 C38.6603059,19.6962374 38.8460558,19.8074648 39.0400843,19.8074648 C39.1026909,19.8074648 39.167367,19.7959929 39.2299735,19.7705553 L44.250396,17.7674635 C44.5034092,17.6662116 44.6224133,17.3858985 44.5194489,17.1419962 C44.4144148,16.8985926 44.1231133,16.7818786 43.8706176,16.8831305 L38.8501951,18.8877185 C38.5976994,18.9869753 38.4761082,19.2677872 38.5811423,19.5111908 L38.5811423,19.5111908 Z" id="Fill-29" fill="#FFFFFF"></path>
                <path d="M9.54361464,39.5032034 L7.50036529,41.4713807 C7.3063368,41.6584224 7.3063368,41.9621781 7.50036529,42.1492198 C7.59763824,42.2424912 7.72492093,42.2893763 7.85220362,42.2893763 C7.97948631,42.2893763 8.106769,42.2424912 8.20352454,42.1492198 L10.2452217,40.1795462 C10.4392501,39.9925045 10.4392501,39.68825 10.2452217,39.5032034 C10.0511932,39.3141666 9.73764313,39.3141666 9.54361464,39.5032034 L9.54361464,39.5032034 Z" id="Fill-30" fill="#FFFFFF"></path>
                <path d="M14.9764123,34.2640412 L11.1346483,37.9679653 C10.9406198,38.155007 10.9406198,38.4572663 11.1346483,38.644308 C11.2314038,38.7375795 11.3586865,38.7844646 11.4859692,38.7844646 C11.6132519,38.7844646 11.7405346,38.7375795 11.8378075,38.644308 L15.680089,34.942379 C15.8741175,34.7553374 15.8741175,34.4510829 15.680089,34.2640412 C15.4860605,34.0769995 15.1704408,34.0769995 14.9764123,34.2640412 L14.9764123,34.2640412 Z" id="Fill-31" fill="#FFFFFF"></path>
                <path d="M41.3218594,10.0229403 C41.4491421,10.0229403 41.5764247,9.9760552 41.6736977,9.88278375 L43.716947,7.91460647 C43.9109755,7.72756478 43.9109755,7.42380909 43.716947,7.23676741 C43.5229185,7.04972572 43.2078163,7.04972572 43.0137878,7.23676741 L40.9726081,9.20644102 C40.7780622,9.39348271 40.7780622,9.69574207 40.9726081,9.88278375 C41.067294,9.9760552 41.1945767,10.0229403 41.3218594,10.0229403 L41.3218594,10.0229403 Z" id="Fill-32" fill="#FFFFFF"></path>
                <path d="M35.8890617,15.2621025 C36.0163443,15.2621025 36.143627,15.2152174 36.2409,15.1214472 L40.0811118,11.4180219 C40.2751403,11.2309802 40.2751403,10.9267257 40.0811118,10.739684 C39.8870834,10.5526424 39.5735333,10.5526424 39.3795048,10.739684 L35.5377407,14.4436081 C35.3437122,14.6306498 35.3437122,14.9344055 35.5377407,15.1214472 C35.6344963,15.2152174 35.761779,15.2621025 35.8890617,15.2621025 L35.8890617,15.2621025 Z" id="Fill-33" fill="#FFFFFF"></path>
                <path d="M20.2353605,37.1983511 C19.9807951,37.0951041 19.6920808,37.2138132 19.5865293,37.4577156 L17.5070613,42.2953617 C17.4020272,42.5407604 17.5231009,42.8195772 17.7755967,42.9208291 C17.836651,42.9462667 17.9013272,42.9577386 17.9660033,42.9577386 C18.1600318,42.9577386 18.3457817,42.8465112 18.424428,42.6614646 L20.5044134,37.8238185 C20.6094475,37.5804149 20.4883737,37.299603 20.2353605,37.1983511 L20.2353605,37.1983511 Z" id="Fill-34" fill="#FFFFFF"></path>
                <path d="M30.9819518,12.1876361 C31.0445583,12.2110786 31.1092345,12.2225505 31.171841,12.2225505 C31.3679391,12.2225505 31.5516194,12.1113231 31.6307831,11.9282716 L33.7102511,7.08863039 C33.8152852,6.84522682 33.6942114,6.5644149 33.4417156,6.46316301 C33.1871503,6.36191111 32.8979185,6.47862512 32.7928844,6.72252747 L30.712899,11.5621687 C30.6078649,11.8055722 30.7294561,12.0863842 30.9819518,12.1876361 L30.9819518,12.1876361 Z" id="Fill-35" fill="#FFFFFF"></path>
            </g>
            <g id="star" filter="url(#filter-27)" transform="translate(0.000000, 149.633346)">
                <path d="M35.7943758,27.3494843 C35.7943758,27.1938656 35.7012421,27.0591956 35.5677505,26.9928581 L30.9819518,23.8151446 L30.2746533,24.3064408 L34.0864076,26.9499632 L29.7065379,26.9499632 L29.9776603,27.7470102 L35.3799309,27.7470102 C35.6081084,27.7470102 35.7943758,27.5699441 35.7943758,27.3494843 L35.7943758,27.3494843 Z" id="Fill-1" fill="#FFFFFF"></path>
                <path d="M30.8525995,17.4362751 L29.5611458,21.2299792 L30.4319457,21.2299792 L32.0348797,16.5225141 C32.0912774,16.358915 32.0307405,16.1798537 31.8874181,16.0766067 C31.7420261,15.9733597 31.5459279,15.9733597 31.4005359,16.0746116 L27.0325666,19.102193 L27.303689,19.8972448 L30.8525995,17.4362751 Z" id="Fill-2" fill="#FFFFFF"></path>
                <path d="M20.3626432,17.4362751 L23.9120711,19.8972448 L24.1826761,19.102193 L19.8152242,16.0746116 C19.6698322,15.9733597 19.473734,15.9733597 19.3298942,16.0766067 C19.1845022,16.1798537 19.1239653,16.358915 19.180363,16.5225141 L20.783297,21.2299792 L21.6546143,21.2299792 L20.3626432,17.4362751 Z" id="Fill-3" fill="#FFFFFF"></path>
                <path d="M25.6076213,32.8360403 L24.1485271,28.5515388 L23.4432982,29.0408399 L25.2154251,34.2410974 C25.2702705,34.4046965 25.4296325,34.5154252 25.6076213,34.5154252 C25.7876798,34.5154252 25.9454896,34.4046965 26.0018872,34.2410974 L27.7724619,29.0408399 L27.0667156,28.5515388 L25.6076213,32.8360403 Z" id="Fill-4" fill="#FFFFFF"></path>
                <path d="M17.1288351,26.9499632 L20.9431765,24.3064408 L20.2332909,23.8151446 L15.602995,27.0242811 C15.457603,27.125533 15.3949965,27.3065894 15.4493245,27.4701885 C15.5062395,27.6357827 15.6635319,27.7470102 15.8435903,27.7470102 L21.2380998,27.7470102 L21.5107745,26.9499632 L17.1288351,26.9499632 Z" id="Fill-5" fill="#FFFFFF"></path>
                <path d="M29.0861641,25.1284266 L30.2746533,24.3064408 L30.9840214,23.8151446 L34.7129903,21.2299792 L27.7579744,21.2299792 L27.0325666,19.102193 L25.609691,14.9189434 L23.9141407,19.8972448 L23.4593379,21.2299792 L16.504322,21.2299792 L20.2353605,23.8151446 L20.9431765,24.3064408 L22.1311482,25.1284266 L21.5107745,26.9499632 L21.2401694,27.7470102 L19.9828648,31.4389636 L23.4448504,29.0388447 L24.1505967,28.5515388 L25.609691,27.5385211 L27.0687852,28.5515388 L27.7745315,29.0388447 L31.2365172,31.4389636 L29.9792126,27.7470102 L29.7065379,26.9499632 L29.0861641,25.1284266 Z M28.5444366,27.9400372 L25.6076213,25.9060213 L22.6708061,27.9400372 L23.7925495,24.647106 L20.8562517,22.611095 L24.485878,22.611095 L25.6076213,19.3186626 L26.7293647,22.611095 L30.3595084,22.611095 L27.4226932,24.647106 L28.5444366,27.9400372 Z" id="Fill-6" fill="#FFFFFF"></path>
                <g id="Group-10" transform="translate(20.696372, 0.000000)">
                    <mask id="mask-29" fill="white">
                        <use xlink:href="#path-28"></use>
                    </mask>
                    <g id="Clip-8"></g>
                    <polygon id="Fill-7" fill="#FFFFFF" mask="url(#mask-29)" points="6.72632097 24.647106 9.66313619 22.6130901 6.0329925 22.6130901 4.91124913 19.3186626 3.78950575 22.6130901 0.159879475 22.6130901 3.09617728 24.647106 1.97443391 27.9400372 4.91124913 25.9060213 7.84806435 27.9400372"></polygon>
                    <path d="M4.91124913,3.74931288 C5.18599347,3.74931288 5.40847947,3.53483842 5.40847947,3.2699874 L5.40847947,0.485809598 C5.40847947,0.220459797 5.18599347,0.00648411168 4.91124913,0.00648411168 C4.63857442,0.00648411168 4.41608842,0.220459797 4.41608842,0.485809598 L4.41608842,3.2699874 C4.41401878,3.53483842 4.63857442,3.74931288 4.91124913,3.74931288 L4.91124913,3.74931288 Z" id="Fill-9" fill="#FFFFFF" mask="url(#mask-29)"></path>
                </g>
                <path d="M25.6076213,11.1566623 C25.8823657,11.1566623 26.1048517,10.9426866 26.1048517,10.6773368 L26.1048517,5.4401697 C26.1048517,5.17531867 25.8823657,4.96084421 25.6076213,4.96084421 C25.3349466,4.96084421 25.1124606,5.17531867 25.1124606,5.4401697 L25.1124606,10.6773368 C25.110391,10.9426866 25.3349466,11.1566623 25.6076213,11.1566623 L25.6076213,11.1566623 Z" id="Fill-11" fill="#FFFFFF"></path>
                <path d="M25.6076213,45.6366743 C25.3349466,45.6366743 25.1124606,45.8511488 25.1124606,46.1159998 L25.1124606,48.9001776 C25.1124606,49.1650286 25.3349466,49.3795031 25.6076213,49.3795031 C25.8823657,49.3795031 26.1048517,49.1650286 26.1048517,48.9001776 L26.1048517,46.1159998 C26.1048517,45.8511488 25.8823657,45.6366743 25.6076213,45.6366743 L25.6076213,45.6366743 Z" id="Fill-12" fill="#FFFFFF"></path>
                <path d="M25.6076213,38.2293249 C25.3349466,38.2293249 25.1124606,38.4433006 25.1124606,38.7086504 L25.1124606,43.9458175 C25.1124606,44.2086734 25.3349466,44.4231479 25.6076213,44.4231479 C25.8823657,44.4231479 26.1048517,44.2086734 26.1048517,43.9458175 L26.1048517,38.7086504 C26.1048517,38.4433006 25.8823657,38.2293249 25.6076213,38.2293249 L25.6076213,38.2293249 Z" id="Fill-13" fill="#FFFFFF"></path>
                <path d="M19.5865293,11.9262765 C19.6656929,12.1113231 19.8493732,12.2225505 20.0454713,12.2225505 C20.1080778,12.2225505 20.172754,12.2110786 20.2353605,12.1856409 C20.4883737,12.0863842 20.6094475,11.8055722 20.5044134,11.5601736 L18.424428,6.72252747 C18.3193939,6.47862512 18.0286098,6.36191111 17.7755967,6.46316301 C17.5210313,6.5644149 17.4020272,6.84522682 17.5070613,7.08863039 L19.5865293,11.9262765 Z" id="Fill-14" fill="#FFFFFF"></path>
                <path d="M31.6307831,37.4577156 C31.525749,37.2138132 31.2344475,37.0970992 30.9819518,37.1983511 C30.7294561,37.299603 30.6078649,37.5804149 30.712899,37.8238185 L32.7928844,42.6634597 C32.8715306,42.8465112 33.0577979,42.9577386 33.2518264,42.9577386 C33.314433,42.9577386 33.3791091,42.9462667 33.4417156,42.9208291 C33.6942114,42.8215723 33.8152852,42.5407604 33.7102511,42.2973568 L31.6307831,37.4577156 Z" id="Fill-15" fill="#FFFFFF"></path>
                <path d="M9.54361464,9.88278375 C9.64088759,9.9760552 9.76610064,10.0229403 9.89545297,10.0229403 C10.020666,10.0229403 10.1479487,9.9760552 10.2452217,9.88278375 C10.4392501,9.69574207 10.4392501,9.39148759 10.2452217,9.20444591 L8.20352454,7.23676741 C8.00949605,7.04972572 7.69439378,7.04972572 7.50036529,7.23676741 C7.3063368,7.42380909 7.3063368,7.72556967 7.50036529,7.91460647 L9.54361464,9.88278375 Z" id="Fill-16" fill="#FFFFFF"></path>
                <path d="M14.9764123,15.1214472 C15.0736853,15.2152174 15.200968,15.2621025 15.3282507,15.2621025 C15.4555334,15.2621025 15.5828161,15.2152174 15.680089,15.1214472 C15.8741175,14.9344055 15.8741175,14.6306498 15.680089,14.4436081 L11.8378075,10.739684 C11.643779,10.5526424 11.3286767,10.5526424 11.1362005,10.739684 C10.9406198,10.9267257 10.9406198,11.2309802 11.1362005,11.4180219 L14.9764123,15.1214472 Z" id="Fill-17" fill="#FFFFFF"></path>
                <path d="M41.6736977,39.5032034 C41.4796692,39.3141666 41.1661192,39.3141666 40.9726081,39.5032034 C40.77651,39.6902451 40.77651,39.9925045 40.9726081,40.1795462 L43.0137878,42.1492198 C43.1105433,42.2424912 43.237826,42.2893763 43.3651087,42.2893763 C43.4929088,42.2893763 43.6201915,42.2424912 43.716947,42.1492198 C43.9109755,41.9621781 43.9109755,41.6584224 43.716947,41.4713807 L41.6736977,39.5032034 Z" id="Fill-18" fill="#FFFFFF"></path>
                <path d="M36.2409,34.2640412 C36.0468715,34.0769995 35.7317692,34.0769995 35.5377407,34.2640412 C35.3437122,34.4510829 35.3437122,34.7553374 35.5377407,34.942379 L39.3795048,38.644308 C39.4767778,38.7375795 39.6040605,38.7844646 39.7313432,38.7844646 C39.8586258,38.7844646 39.9838389,38.7375795 40.0831815,38.644308 C40.27721,38.4572663 40.2751403,38.1530119 40.0831815,37.9679653 L36.2409,34.2640412 Z" id="Fill-19" fill="#FFFFFF"></path>
                <path d="M6.9669163,17.7674635 L11.9873388,19.7705553 C12.0478757,19.7959929 12.1125518,19.8074648 12.1751584,19.8074648 C12.3712565,19.8074648 12.5554542,19.6962374 12.6361701,19.5111908 C12.7391345,19.2677872 12.6201304,18.9869753 12.3650476,18.8877185 L7.34669473,16.8831305 C7.09212935,16.7818786 6.80289755,16.8985926 6.69786346,17.1419962 C6.59282937,17.3858985 6.71442056,17.6662116 6.9669163,17.7674635 L6.9669163,17.7674635 Z" id="Fill-20" fill="#FFFFFF"></path>
                <g id="Group-24" transform="translate(0.000000, 23.941335)">
                    <mask id="mask-31" fill="white">
                        <use xlink:href="#path-30"></use>
                    </mask>
                    <g id="Clip-22"></g>
                    <path d="M44.250396,7.67718822 L39.2299735,5.67210138 C38.9754082,5.57084948 38.6866938,5.68756349 38.5811423,5.93146585 C38.4761082,6.17486943 38.5976994,6.45518256 38.8501951,6.55693324 L43.8706176,8.5615213 C43.9311545,8.58695897 43.9958307,8.59843086 44.0605068,8.59843086 C44.2545353,8.59843086 44.4408027,8.48570707 44.5194489,8.30265561 C44.624483,8.05675815 44.5034092,7.77844012 44.250396,7.67718822 L44.250396,7.67718822 Z" id="Fill-21" fill="#FFFFFF" mask="url(#mask-31)"></path>
                    <path d="M3.38540909,0.271335135 L0.497230343,0.271335135 C0.222486001,0.271335135 0,0.485809598 0,0.750660621 C0,1.01551164 0.222486001,1.22998611 0.497230343,1.22998611 L3.38540909,1.22998611 C3.66015343,1.22998611 3.88263943,1.01551164 3.88263943,0.750660621 C3.88263943,0.485809598 3.66015343,0.271335135 3.38540909,0.271335135 L3.38540909,0.271335135 Z" id="Fill-23" fill="#FFFFFF" mask="url(#mask-31)"></path>
                </g>
                <path d="M11.566685,24.691996 C11.566685,24.427145 11.3447164,24.2126706 11.0699721,24.2126706 L5.63717438,24.2126706 C5.36191263,24.2126706 5.13994404,24.427145 5.13994404,24.691996 C5.13994404,24.9568471 5.36191263,25.1713215 5.63717438,25.1713215 L11.0699721,25.1713215 C11.3447164,25.1713215 11.566685,24.9568471 11.566685,24.691996 L11.566685,24.691996 Z" id="Fill-25" fill="#FFFFFF"></path>
                <path d="M50.720082,24.2126706 L47.8319032,24.2126706 C47.5571589,24.2126706 47.3346729,24.427145 47.3346729,24.691996 C47.3346729,24.9568471 47.5571589,25.1713215 47.8319032,25.1713215 L50.720082,25.1713215 C50.9953437,25.1713215 51.2173123,24.9568471 51.2173123,24.691996 C51.2173123,24.427145 50.9953437,24.2126706 50.720082,24.2126706 L50.720082,24.2126706 Z" id="Fill-26" fill="#FFFFFF"></path>
                <path d="M45.5806554,24.2126706 L40.1478576,24.2126706 C39.8725959,24.2126706 39.6506273,24.427145 39.6506273,24.691996 C39.6506273,24.9568471 39.8725959,25.1713215 40.1478576,25.1713215 L45.5806554,25.1713215 C45.8553997,25.1713215 46.0778857,24.9568471 46.0778857,24.691996 C46.0778857,24.427145 45.8553997,24.2126706 45.5806554,24.2126706 L45.5806554,24.2126706 Z" id="Fill-27" fill="#FFFFFF"></path>
                <path d="M12.6361701,29.8728013 C12.531136,29.6288989 12.2398345,29.5121849 11.9852692,29.6134368 L6.9669163,31.6185236 C6.71442056,31.7197755 6.59282937,31.9980936 6.69786346,32.243991 C6.77702708,32.4270425 6.96277702,32.5397663 7.15680551,32.5397663 C7.22148168,32.5397663 7.2840882,32.5282944 7.34669473,32.5028567 L12.3671172,30.4982687 C12.6201304,30.396518 12.7412041,30.1162048 12.6361701,29.8728013 L12.6361701,29.8728013 Z" id="Fill-28" fill="#FFFFFF"></path>
                <path d="M38.5811423,19.5111908 C38.6603059,19.6962374 38.8460558,19.8074648 39.0400843,19.8074648 C39.1026909,19.8074648 39.167367,19.7959929 39.2299735,19.7705553 L44.250396,17.7674635 C44.5034092,17.6662116 44.6224133,17.3858985 44.5194489,17.1419962 C44.4144148,16.8985926 44.1231133,16.7818786 43.8706176,16.8831305 L38.8501951,18.8877185 C38.5976994,18.9869753 38.4761082,19.2677872 38.5811423,19.5111908 L38.5811423,19.5111908 Z" id="Fill-29" fill="#FFFFFF"></path>
                <path d="M9.54361464,39.5032034 L7.50036529,41.4713807 C7.3063368,41.6584224 7.3063368,41.9621781 7.50036529,42.1492198 C7.59763824,42.2424912 7.72492093,42.2893763 7.85220362,42.2893763 C7.97948631,42.2893763 8.106769,42.2424912 8.20352454,42.1492198 L10.2452217,40.1795462 C10.4392501,39.9925045 10.4392501,39.68825 10.2452217,39.5032034 C10.0511932,39.3141666 9.73764313,39.3141666 9.54361464,39.5032034 L9.54361464,39.5032034 Z" id="Fill-30" fill="#FFFFFF"></path>
                <path d="M14.9764123,34.2640412 L11.1346483,37.9679653 C10.9406198,38.155007 10.9406198,38.4572663 11.1346483,38.644308 C11.2314038,38.7375795 11.3586865,38.7844646 11.4859692,38.7844646 C11.6132519,38.7844646 11.7405346,38.7375795 11.8378075,38.644308 L15.680089,34.942379 C15.8741175,34.7553374 15.8741175,34.4510829 15.680089,34.2640412 C15.4860605,34.0769995 15.1704408,34.0769995 14.9764123,34.2640412 L14.9764123,34.2640412 Z" id="Fill-31" fill="#FFFFFF"></path>
                <path d="M41.3218594,10.0229403 C41.4491421,10.0229403 41.5764247,9.9760552 41.6736977,9.88278375 L43.716947,7.91460647 C43.9109755,7.72756478 43.9109755,7.42380909 43.716947,7.23676741 C43.5229185,7.04972572 43.2078163,7.04972572 43.0137878,7.23676741 L40.9726081,9.20644102 C40.7780622,9.39348271 40.7780622,9.69574207 40.9726081,9.88278375 C41.067294,9.9760552 41.1945767,10.0229403 41.3218594,10.0229403 L41.3218594,10.0229403 Z" id="Fill-32" fill="#FFFFFF"></path>
                <path d="M35.8890617,15.2621025 C36.0163443,15.2621025 36.143627,15.2152174 36.2409,15.1214472 L40.0811118,11.4180219 C40.2751403,11.2309802 40.2751403,10.9267257 40.0811118,10.739684 C39.8870834,10.5526424 39.5735333,10.5526424 39.3795048,10.739684 L35.5377407,14.4436081 C35.3437122,14.6306498 35.3437122,14.9344055 35.5377407,15.1214472 C35.6344963,15.2152174 35.761779,15.2621025 35.8890617,15.2621025 L35.8890617,15.2621025 Z" id="Fill-33" fill="#FFFFFF"></path>
                <path d="M20.2353605,37.1983511 C19.9807951,37.0951041 19.6920808,37.2138132 19.5865293,37.4577156 L17.5070613,42.2953617 C17.4020272,42.5407604 17.5231009,42.8195772 17.7755967,42.9208291 C17.836651,42.9462667 17.9013272,42.9577386 17.9660033,42.9577386 C18.1600318,42.9577386 18.3457817,42.8465112 18.424428,42.6614646 L20.5044134,37.8238185 C20.6094475,37.5804149 20.4883737,37.299603 20.2353605,37.1983511 L20.2353605,37.1983511 Z" id="Fill-34" fill="#FFFFFF"></path>
                <path d="M30.9819518,12.1876361 C31.0445583,12.2110786 31.1092345,12.2225505 31.171841,12.2225505 C31.3679391,12.2225505 31.5516194,12.1113231 31.6307831,11.9282716 L33.7102511,7.08863039 C33.8152852,6.84522682 33.6942114,6.5644149 33.4417156,6.46316301 C33.1871503,6.36191111 32.8979185,6.47862512 32.7928844,6.72252747 L30.712899,11.5621687 C30.6078649,11.8055722 30.7294561,12.0863842 30.9819518,12.1876361 L30.9819518,12.1876361 Z" id="Fill-35" fill="#FFFFFF"></path>
            </g>
        </g>
    </g>
</svg>