<?xml version="1.0" encoding="iso-8859-1"?>
<!-- Generator: Adobe Illustrator 19.0.0, SVG Export Plug-In . SVG Version: 6.00 Build 0)  -->
<svg version="1.1" id="Layer_1" xmlns="http://www.w3.org/2000/svg" xmlns:xlink="http://www.w3.org/1999/xlink" x="0px" y="0px"
	 viewBox="0 0 512 512" style="enable-background:new 0 0 512 512;" xml:space="preserve">
<g transform="translate(1 1)">
	<path style="fill:#fff;" d="M502.467,484.532H7.533c-5.12,0-8.533-3.413-8.533-8.533s3.413-8.533,8.533-8.533h494.933
		c5.12,0,8.533,3.413,8.533,8.533S507.587,484.532,502.467,484.532z"/>
	<polygon style="fill:#FFFFFF;" points="400.067,475.999 485.4,475.999 485.4,356.532 400.067,356.532 	"/>
	<path style="fill:#fff;" d="M493.933,484.532h-102.4V347.999h102.4V484.532z M408.6,467.465h68.267v-102.4H408.6V467.465z"/>
	<polygon style="fill:#FFFFFF;" points="272.067,475.999 357.4,475.999 357.4,279.732 272.067,279.732 	"/>
	<path style="fill:#fff;" d="M365.933,484.532h-102.4V271.199h102.4V484.532z M280.6,467.465h68.267v-179.2H280.6V467.465z"/>
	<polygon style="fill:#FFFFFF;" points="144.067,475.999 229.4,475.999 229.4,211.465 144.067,211.465 	"/>
	<path style="fill:#fff;" d="M237.933,484.532h-102.4v-281.6h102.4V484.532z M152.6,467.465h68.267V219.999H152.6V467.465z"/>
	<polygon style="fill:#fff;" points="16.067,475.999 101.4,475.999 101.4,143.199 16.067,143.199 	"/>
	<g>
		<path style="fill:#fff;" d="M109.933,484.532H7.533V134.665h102.4V484.532z M24.6,467.465h68.267V151.732H24.6V467.465z"/>
		<path style="fill:#fff;" d="M363.373,242.185c-4.267,0-7.68-3.413-8.533-7.68s2.56-8.533,7.68-9.387l46.933-4.267
			l-309.76-179.2c-4.267-2.56-5.12-7.68-3.413-11.947c2.56-4.267,7.68-5.12,11.947-3.413l308.907,179.2l-19.627-42.667
			c-1.707-4.267,0-9.387,4.267-11.093c4.267-1.707,9.387,0,11.093,4.267l30.72,66.56c0,0.853,0,0.853,0.853,1.707
			c0,0.853,0,1.707,0,2.56c0,0.853,0,0.853,0,1.707c0,0.853-0.853,1.707-0.853,2.56c-0.853,0.853-0.853,1.707-1.707,1.707
			l-0.853,0.853c-0.853,0.853-1.707,0.853-2.56,0.853c-0.853,0-0.853,0-1.707,0L363.373,242.185
			C364.227,242.185,363.373,242.185,363.373,242.185z"/>
	</g>
</g>
<g>
</g>
<g>
</g>
<g>
</g>
<g>
</g>
<g>
</g>
<g>
</g>
<g>
</g>
<g>
</g>
<g>
</g>
<g>
</g>
<g>
</g>
<g>
</g>
<g>
</g>
<g>
</g>
<g>
</g>
</svg>
